<?xml version="1.0" encoding="UTF-8" standalone="no"?>
<!-- Created with Inkscape (http://www.inkscape.org/) -->

<svg
   xmlns:dc="http://purl.org/dc/elements/1.1/"
   xmlns:cc="http://creativecommons.org/ns#"
   xmlns:rdf="http://www.w3.org/1999/02/22-rdf-syntax-ns#"
   xmlns:svg="http://www.w3.org/2000/svg"
   xmlns="http://www.w3.org/2000/svg"
   xmlns:xlink="http://www.w3.org/1999/xlink"
   xmlns:sodipodi="http://sodipodi.sourceforge.net/DTD/sodipodi-0.dtd"
   xmlns:inkscape="http://www.inkscape.org/namespaces/inkscape"
   width="210mm"
   height="297mm"
   viewBox="0 0 210 297"
   version="1.1"
   id="svg4802"
   inkscape:version="0.92.2 5c3e80d, 2017-08-06"
   sodipodi:docname="fitbox-flyer-drawing.svg">
  <defs
     id="defs4796" />
  <sodipodi:namedview
     id="base"
     pagecolor="#ffffff"
     bordercolor="#666666"
     borderopacity="1.0"
     inkscape:pageopacity="0.0"
     inkscape:pageshadow="2"
     inkscape:zoom="0.59241723"
     inkscape:cx="396.85039"
     inkscape:cy="493.73986"
     inkscape:document-units="mm"
     inkscape:current-layer="layer4"
     showgrid="true"
     inkscape:window-width="1440"
     inkscape:window-height="878"
     inkscape:window-x="0"
     inkscape:window-y="0"
     inkscape:window-maximized="1" />
  <metadata
     id="metadata4799">
    <rdf:RDF>
      <cc:Work
         rdf:about="">
        <dc:format>image/svg+xml</dc:format>
        <dc:type
           rdf:resource="http://purl.org/dc/dcmitype/StillImage" />
        <dc:title></dc:title>
      </cc:Work>
    </rdf:RDF>
  </metadata>
  <g
     inkscape:label="Photograph"
     inkscape:groupmode="layer"
     id="layer1"
     style="display:none"
     sodipodi:insensitive="true">
    <image
       sodipodi:absref="/Users/martindrlik/Desktop/inkspace/fitbox-punch-grayscale.png"
       xlink:href="fitbox-punch-grayscale.png"
       width="265.53775"
       height="168.02301"
       preserveAspectRatio="none"
       id="image5956"
       x="-55.436489"
       y="64.488495" />
  </g>
  <g
     inkscape:groupmode="layer"
     id="layer5"
     inkscape:label="Background"
     style="display:none"
     sodipodi:insensitive="true">
    <rect
       style="fill:#ff5aad;fill-opacity:1;fill-rule:evenodd;stroke-width:0.31305921"
       id="rect6078"
       width="210.3564"
       height="184.45264"
       x="0.082550138"
       y="54.93383" />
  </g>
  <g
     inkscape:groupmode="layer"
     id="layer4"
     inkscape:label="Path"
     style="display:inline">
    <path
       style="display:inline;fill:#000000;stroke-width:0.95530683"
       d="M 0,243.73633 V 878.7832 l 145.26953,-0.006 c 0.27582,-86.4184 13.17786,-172.78402 13.72656,-259.32617 l 0.92579,-12.00976 0.92578,-12.00977 1.00781,-0.95703 1.00976,-0.95899 -0.38867,1.91797 -0.38867,1.91602 3.10547,2.7793 3.10742,2.77734 3.08984,0.97656 3.08985,0.97657 6.2207,-0.51172 6.22071,-0.51172 -0.71876,0.73242 -0.7207,0.73242 1.70117,1.22656 1.69922,1.22657 1.65821,0.0293 1.65625,0.0312 0.69726,1.07227 0.69727,1.07226 -1.72852,1.20118 -1.73047,1.20117 3.29492,0.83203 3.29493,0.83203 5.39062,-0.28125 5.39063,-0.28125 -2.44922,1.33203 -2.45117,1.33399 1.96093,0.13086 1.95899,0.13085 2.45117,-0.14453 2.44922,-0.14648 1.4707,-0.21094 1.4707,-0.21289 1.11329,-0.66211 1.11523,-0.66211 1.09766,1.25782 1.09765,1.25781 -4.20508,1.52539 -4.20507,1.52539 -3.88672,0.0801 -3.88867,0.0801 2.50781,0.72266 2.50781,0.72461 2.08789,1.06055 2.08789,1.0625 0.67383,-1.03321 0.67187,-1.03515 2.18165,2.41211 2.18164,2.41211 0.63476,-0.60547 0.63672,-0.60352 v 1.35352 1.35547 l 4.90039,4.58398 4.90039,4.58594 v 1.09961 1.09765 l 2.53906,0.60547 2.53907,0.60547 -0.54688,1.35742 -0.54883,1.35743 h 2.36524 2.36523 l 5.06836,4.88867 5.06836,4.88867 9.14258,9.3125 9.14062,9.31055 6.71485,7.91406 6.71484,7.91601 9.53321,7.58985 9.53515,7.58789 4.14258,1.82617 4.14258,1.82617 14.81836,4.78516 14.81836,4.78515 4.29297,-0.008 4.29492,-0.008 5.35937,-2.36914 5.35742,-2.37109 11.79297,-8.16993 11.79297,-8.16992 10.37109,-6.66015 10.36915,-6.66016 1.14648,-2.38867 1.14453,-2.38867 v -1.81055 -1.81055 l -2.86133,-6.29297 -2.86328,-6.29297 -1.70117,-5.41015 -1.69922,-5.41211 -3.20898,-3.99219 -3.20899,-3.99219 -2.39648,-4.09765 -2.39649,-4.09961 -3.20898,-2.09571 -3.20703,-2.0957 -3.04102,0.0352 -3.03906,0.0332 -2.11133,1.13086 -2.10937,1.13086 -10.47852,10.47656 -10.47851,10.47461 -2.11133,-0.004 -2.11328,-0.004 -2.94532,-1.70508 -2.94531,-1.70703 -8.32617,-2.61328 -8.32617,-2.61133 -9.80078,-4.62695 -9.80078,-4.62696 -5.60743,-3.60937 -5.60547,-3.61133 -10.83789,-7.93555 -10.83593,-7.93554 -0.50782,1.63867 -0.50976,1.64062 -2.41797,4.69532 -2.41797,4.69531 -6.23828,5.87305 -6.23633,5.87304 -1.83594,-0.93359 -1.83398,-0.93555 -6.00781,-5.44336 -6.00782,-5.44531 -2.67578,-3.48242 -2.67773,-3.48242 -1.11524,0.52734 -1.11718,0.52734 2.45117,-1.99218 2.44922,-1.99024 5.24804,-4.83008 5.24805,-4.83007 1.85742,-3.45508 1.85743,-3.45508 v -3.41992 -3.41797 l -3.44922,-3.0918 -3.45118,-3.09179 -2.8125,-5.95704 -2.81445,-5.95898 -5.00586,-4.0957 -5.00781,-4.09766 V 562.16797 560.75 l -7.42188,-6.00391 -7.41992,-6.00195 -3.30078,-2.23047 -3.29883,-2.23047 -4.45507,-0.47656 -4.45313,-0.47656 -6.02539,2.14062 -6.02344,2.14063 -5.33398,4.94726 -5.33399,4.94727 0.5918,1.77344 0.5918,1.77343 -2.08789,3.36329 -2.08789,3.36328 h -0.14844 -0.14844 l 0.25391,-8.14844 0.2539,-8.14844 c 4.01352,-91.78276 19.97029,-200.36667 21.54492,-307.74609 z m 576.01367,109.67773 -3.42969,1.33594 -3.42968,1.33594 5.24414,0.0684 5.24414,0.0684 1.12695,1.14843 1.125,1.15039 -2.20508,-0.50586 -2.20507,-0.5039 v 0.87305 0.87304 l 1.4707,0.53516 1.4707,0.53711 v 0.88672 0.88672 l -1.22656,-0.67383 -1.22461,-0.67188 2.74609,2.47852 2.7461,2.48047 h 0.49609 0.49805 l -0.54297,-0.83399 -0.54102,-0.83203 1.45313,-0.5293 1.45117,-0.53125 -0.14648,0.66602 -0.14649,0.66406 1.05078,2.32813 1.04883,2.32812 5.18359,4.65625 5.18164,4.6543 -1.36523,-1.86133 -1.36523,-1.86328 -3.38672,-3.43945 -3.38477,-3.44141 2.10742,0.52344 2.10743,0.52344 v 0.77343 0.77539 l 2.58593,2.60938 2.58594,2.60742 2.43945,5.12109 2.43946,5.1211 0.73047,2.32812 0.73242,2.32813 1.24219,-2.79297 1.24023,-2.79297 0.74414,2.32813 0.74609,2.32617 0.0977,-1.31836 0.0977,-1.31836 0.5625,0.5332 0.56054,0.53516 0.73828,5.16211 0.73829,5.16211 -0.81055,-0.47461 -0.8086,-0.47461 v 2.07226 2.07227 l -0.55273,-0.52539 -0.55273,-0.52344 -0.37891,-4.42773 -0.38086,-4.42578 -0.87695,-0.83399 -0.87891,-0.83594 -0.10547,3.07032 -0.10742,3.07031 0.98242,3.51953 0.98242,3.51953 0.79883,-0.46875 0.79883,-0.46875 -0.10937,4.78516 -0.10938,4.78711 1.22461,0.38672 1.22461,0.38867 V 414.21484 416 h 0.35547 0.35351 l -0.0762,-5.01562 -0.0762,-5.01758 1.14844,-1.31446 1.15039,-1.3164 0.6582,-3.91016 0.6582,-3.91211 h -0.98242 -0.98242 l -0.42969,-7.78125 -0.43164,-7.7832 -2.66992,-5.18555 -2.66992,-5.1875 -5.92774,-5.21289 -5.92773,-5.21289 -4.75195,-2.28906 -4.75196,-2.28711 -5.20898,-0.58008 z m -58.79883,13.07032 -4.90039,2.42968 -4.90039,2.42969 -5.88086,4.10937 -5.88086,4.10938 -1.55273,1.45508 -1.55273,1.45508 h -1.78516 -1.7832 l 1.49023,-1.62891 1.49219,-1.63086 -0.0332,-1.61328 -0.0351,-1.61523 -1.20508,0.95117 -1.20703,0.95117 -2.22656,0.4082 -2.22657,0.40625 -2.77343,2.52539 -2.77539,2.52539 v 1.79493 1.79492 l 2.60546,-1.6211 2.60547,-1.62304 -1.95507,2.67968 -1.95313,2.67969 -0.80273,1.30664 -0.80274,1.3086 1.06445,-0.625 1.06446,-0.625 0.66406,1.02148 0.66406,1.02344 -2.36133,2.48437 -2.36132,2.48438 -1.4043,1.86328 -1.4043,1.86133 2.02344,-1.63086 2.02344,-1.63086 0.51562,0.49023 0.51563,0.49024 3.08008,-2.99414 3.08007,-2.99219 v 1.53711 1.53711 l -1.54101,1.19922 -1.53906,1.20117 -1.89063,1.6289 -1.89062,1.63086 h -1.34961 -1.34961 l -1.21094,1.38672 -1.21094,1.38477 -0.75,-0.43945 -0.75,-0.43946 -4.28515,3.50586 -4.28516,3.50586 -3.18555,0.27344 -3.18359,0.27344 v -0.90235 -0.90039 l -1.52149,-0.55469 -1.52148,-0.55468 0.67969,1.15234 0.67773,1.1543 -1.70312,-1.52149 -1.70508,-1.52344 -0.0586,-2.20117 -0.0566,-2.20312 0.57618,-2.54492 0.57617,-2.54688 0.70898,-1.08984 0.70899,-1.08985 -1.29883,0.76172 -1.29688,0.76172 0.625,-1.54883 0.62696,-1.54883 h -0.41797 -0.41797 l -2.45508,3.97852 -2.45508,3.98047 0.29688,3.71875 0.29687,3.7168 1.16992,2.08007 1.17188,2.07813 h 0.94531 0.94531 l -0.24414,1.12891 -0.24414,1.12695 -0.7207,0.9668 -0.7207,0.96875 -2.39453,2.84765 -2.39258,2.84766 0.73633,1.13086 0.73437,1.13281 1.79492,-1.88477 1.79493,-1.88476 1.07421,0.0156 1.07227,0.0156 -0.97852,0.68359 -0.98046,0.6836 0.0254,1.39648 0.0273,1.39648 0.85937,1.3086 0.86133,1.30859 -1.19336,-0.70117 -1.19531,-0.70117 0.66406,3.36133 0.66407,3.36132 -1.74219,-0.63476 -1.74219,-0.63477 0.84375,1.29493 0.8418,1.29687 -0.21094,2.64453 -0.21289,2.64453 0.73047,1.10743 0.72851,1.10546 0.0801,0.93164 0.0781,0.92969 1.24804,2.79492 1.2461,2.79297 -0.97656,1.49805 -0.97852,1.49805 3.69531,5.01953 3.69727,5.01953 1.60547,-0.12695 1.60547,-0.12696 -0.45508,0.70117 -0.45703,0.70118 1.91796,1.64843 1.91797,1.65039 0.58008,2.94141 0.58203,2.94141 -1.17578,13.92382 -1.17578,13.92383 -0.45703,4.37891 -0.45899,4.37891 2.5918,2.46093 2.5918,2.46289 4.11523,-0.53711 4.11524,-0.5371 4.74609,-0.58399 4.74609,-0.58398 1,0.94921 1,0.95118 -0.6875,1.05664 -0.6875,1.05859 -1.38281,-1.08984 -1.38281,-1.0918 v 1.55664 1.55469 l 3.06836,1.22656 3.07031,1.22656 3.51758,-0.7539 3.51953,-0.75391 0.39844,0.37891 0.40039,0.3789 -2.42188,1.04883 -2.41992,1.04688 0.21289,3.41015 0.21289,3.41016 1.95899,0.2832 1.95898,0.28125 1.89844,2.04492 1.89844,2.04688 1.65625,5.20703 1.65625,5.20898 3.36523,1.72266 3.36719,1.72266 -2.25586,1.98828 -2.25781,1.98633 -1.04688,3.1875 -1.04883,3.18554 -0.49218,1.86329 -0.49414,1.86132 0.18359,-5.58593 0.18555,-5.58789 -0.99805,0.1621 -1,0.16016 -2.75977,0.6582 -2.75976,0.65821 0.31445,-1.76367 0.31445,-1.76368 -1.94531,-1.93945 -1.94726,-1.93945 -1.89844,-2.5293 -1.90039,-2.5293 -1.53125,-1.65625 -1.53125,-1.6582 -2.26953,-1.14258 -2.27149,-1.14258 -4.99023,-0.75 -4.99024,-0.75 -3.33203,0.875 -3.33203,0.87305 -6.06836,0.17383 -6.06836,0.17383 -6.99219,4.42382 -6.99218,4.42188 h -1.08789 -1.08594 l -5.68555,5.35547 -5.6875,5.35351 -1.94531,3.72461 -1.94531,3.72461 -2.80078,4.49219 -2.80274,4.49414 0.043,6.65039 0.0449,6.65235 1.07227,0.33984 1.07226,0.33984 v 0.85352 0.85351 h -1.44531 -1.44726 l 0.88867,2.22071 0.88867,2.2207 -2.04688,2.08789 -2.04882,2.08984 3.83007,-0.5957 3.83204,-0.5957 1.83593,-0.0391 1.83594,-0.0371 1.41992,-1.34766 1.41797,-1.34766 h 2.86914 2.8711 v 0.82422 0.82617 l 2.69531,0.51563 2.69531,0.51367 2.69531,0.63086 2.69532,0.63086 v -2.8418 -2.84179 l -0.92383,-2.3086 -0.92383,-2.30859 -2.10547,-0.63477 -2.10742,-0.63476 -1.37891,-3.14063 -1.38086,-3.13867 0.0684,-2.58984 0.0684,-2.5918 0.79883,1.86328 0.79883,1.86133 0.74414,-2.79297 0.74414,-2.79297 3.22656,-6.05273 3.22852,-6.05274 4.02734,-4.18945 4.0293,-4.19141 -1.03321,2.04297 -1.03124,2.04492 -0.9961,0.58399 -0.99805,0.58594 -2.83398,5.33398 -2.83398,5.33594 -1.63868,5.35547 -1.63867,5.35547 0.56836,1.40429 0.56641,1.40625 1.09765,-0.64257 1.09571,-0.64454 0.81836,1.25782 0.82031,1.25976 -1.17383,0.70899 -1.17383,0.70898 1.71485,0.0137 1.71484,0.0156 v 1.45117 1.45312 l -0.97852,-0.57617 -0.98046,-0.57617 v 0.37891 0.37695 l 1.95898,2.14844 1.96094,2.14648 v 1.25391 1.25586 h -1.17578 -1.17579 l 1.14063,1.08398 1.14258,1.08399 6.65039,1.62695 6.65039,1.62695 -2.97852,0.082 -2.97656,0.082 -0.12891,1.63868 -0.13085,1.63672 -0.32422,1.38867 -0.32227,1.38867 5.39063,0.28516 5.39062,0.2871 0.92969,0.87696 0.93164,0.8789 h -2.05078 -2.05078 l -0.65625,1.6211 -0.6543,1.62109 2.2168,1.70703 2.21875,1.70508 3.15625,-0.5625 3.15625,-0.5625 0.625,0.95899 0.62304,0.96093 h -1.52734 -1.52734 v 0.45508 0.45508 l 1.6875,1.87305 1.6875,1.87304 h 0.82031 0.82031 l -0.69922,-1.07617 -0.69922,-1.07422 1.13086,0.66406 1.13086,0.66407 v 1.58398 1.58399 l 1.96094,1.16211 1.96094,1.16211 v 1.73828 1.73632 l 1.43164,3.85547 1.42969,3.85547 -1.6875,-0.85742 -1.6875,-0.85938 -1.85547,-1.94726 -1.85547,-1.94922 h -0.73242 -0.73243 l -1.07617,2.93164 -1.07617,2.9336 v 1.3125 1.3125 l 0.98047,-0.57618 0.98047,-0.57422 v 1.04102 1.04102 l 0.98047,-0.57618 0.97851,-0.57617 0.002,0.75391 v 0.7539 l 2.20507,2.32813 2.20313,2.32812 3.43164,1.76368 3.42969,1.76367 1.96093,1.55469 1.95899,1.55664 2.75586,1.62695 2.7539,1.62695 0.97852,-0.30859 0.97656,-0.3086 -2.99609,-3.93164 -2.99805,-3.93164 v -2.29882 -2.30079 l -2.14453,-1.89843 -2.14648,-1.89844 -1.03907,-0.0312 -1.04101,-0.0293 -1.73242,-2.26172 -1.73047,-2.26367 -0.59571,-2.82812 -0.5957,-2.83008 h 1.48633 1.48828 l 0.60742,1.50195 0.60742,1.50391 2.4375,-0.44336 2.4375,-0.44336 v 0.80273 0.80274 h 1.57618 1.57421 l -0.71093,1.6289 -0.71289,1.62891 0.0684,0.93164 0.0684,0.93164 0.29296,1.86133 0.29493,1.86328 1.78125,1.25977 1.78125,1.26172 -0.52539,1.29882 -0.5254,1.30078 h 0.94922 0.94922 v 1.29297 1.29297 l 1.41211,-0.1289 1.41406,-0.12891 0.12696,0.93164 0.12695,0.92969 1.40039,0.74609 1.40039,0.74414 v 1.20508 1.20703 l 1.95899,1.68555 1.96093,1.68555 v 1.21875 1.2207 l 3.18555,3.46875 3.18555,3.4707 -1.71485,-0.61523 -1.71679,-0.61328 v 0.45898 0.45899 l 2.45117,0.88476 2.44922,0.88477 1.95117,3.05078 1.95312,3.04883 0.52344,-0.30274 0.52344,-0.30273 1.02539,0.32422 1.02539,0.32617 -2.25781,2.72656 -2.25781,2.72656 1.04882,-0.61718 1.05078,-0.61524 2.28907,3.91992 2.28906,3.91992 2.18555,2.79297 2.18554,2.79297 3.65625,6.05274 3.65821,6.05273 2.5,2.56055 2.5,2.56054 h -0.74414 -0.74414 l 2.03125,2.45313 2.03125,2.45312 v 0.76368 0.76367 l 2.43945,2.31836 2.44141,2.31836 -0.57422,1.68164 -0.57227,1.68164 0.94531,-1.25586 0.94532,-1.25586 3.29882,5.44531 3.29688,5.44727 -0.24414,0.73437 -0.24219,0.73633 1.02734,1.82422 1.02735,1.82617 h 1.12695 1.12891 l 2.26758,2.02344 2.26757,2.02344 v 0.74023 0.74024 l -1.46289,-0.53516 -1.46484,-0.5332 0.51172,-0.78711 0.51172,-0.78711 -2.22852,-1.13282 -2.22851,-1.13281 2.85351,3.64649 2.85156,3.64843 3.34375,3.9668 3.34375,3.96875 0.89454,-0.52539 0.89257,-0.52344 -0.53906,1.33789 -0.54101,1.33985 11.46874,11.30078 11.46876,11.30273 1.68554,-0.50781 1.68555,-0.50977 1.36328,1.57032 1.36328,1.57031 -2.44922,-1.21875 -2.45117,-1.21875 1.95703,2.08984 1.95508,2.0918 6.13086,4.72461 6.12891,4.72656 v 1.05078 1.05078 l 3.67578,2.02344 3.67578,2.02344 -2.25781,0.0234 -2.25782,0.0234 -7.38086,5.35352 -7.38281,5.35352 -2.86328,2.00781 -2.86523,2.00586 5.15234,0.69726 5.15234,0.69727 8.82227,0.64844 8.82031,0.64648 -6.86133,0.0898 -6.85937,0.0898 -7.8418,-0.80274 -7.83984,-0.80273 -2.32813,1.55078 -2.32617,1.55273 -4.04297,2.48829 -4.04492,2.48632 -2.82031,0.0742 -2.82031,0.0723 -6.24219,-6.13672 -6.24024,-6.13867 -1.48242,-2.9668 -1.48242,-2.9668 -6.89258,-5.0957 -6.89258,-5.0957 -7.81445,-9.5 -7.81445,-9.5 -14.97852,-14.41797 -14.97656,-14.41602 -1.41211,-2.62109 -1.41211,-2.62109 -6.04297,-5.72266 -6.04297,-5.72266 -5.13867,-1.04687 -5.13867,-1.04688 -0.48633,0.46289 -0.48633,0.46094 1.07031,1.22656 1.07227,1.22852 -3.39258,-0.37695 -3.39258,-0.37696 0.62305,1.54493 0.62305,1.54296 5.51367,2.73047 5.51172,2.73047 -3.94922,-0.5332 -3.94922,-0.53125 -0.10742,4.04297 -0.10938,4.04297 -0.7246,3.1289 -0.72461,3.13086 1.35156,0.8125 1.35351,0.81445 -1.6582,0.0156 -1.65625,0.0137 -0.60547,-0.92969 -0.60742,-0.93164 h -4.43359 -4.4336 l 0.40039,1.16407 0.40039,1.16406 4.18164,2.79297 4.17969,2.79297 5.54688,4.76172 5.54492,4.76367 2.20508,1.08984 2.20703,1.08984 v 0.89844 0.89844 h -1.81055 -1.81055 l -2.89453,-1.37305 -2.89648,-1.37109 -2.40039,-2.44141 -2.40039,-2.43945 -2.82422,-1.39649 -2.82617,-1.39648 -0.79297,1.2207 -0.79492,1.22071 0.86718,0.99218 0.86914,0.99415 -0.98046,4.14062 -0.97852,4.14062 0.30078,3.27735 0.30078,3.27734 -3.18554,0.29297 -3.18555,0.29102 v 0.70508 0.70312 l 2.93945,3.12891 2.94141,3.1289 v 0.78907 0.7871 l -3.03125,-1.49023 -3.03125,-1.48828 -0.55664,0.52734 -0.55664,0.5293 1.77734,1.86523 1.77734,1.86719 10.38672,5.54883 10.38477,5.54883 2.9414,1.89648 2.93946,1.89453 -0.82031,0.008 -0.82227,0.008 -7.59961,-3.17383 -7.60156,-3.17578 -3.58985,-0.94141 -3.59179,-0.94336 -1.46289,1.39063 -1.46289,1.39062 v 1.33008 1.33008 h -0.65821 -0.6582 l -1.70312,-1.46484 -1.70508,-1.46485 -0.63282,1.89453 -0.63281,1.89649 1.02735,1.82226 1.02734,1.82227 5.15234,2.33398 5.15235,2.33594 -4.90039,-0.16602 -4.90039,-0.16406 -0.33789,2.32813 -0.33985,2.32812 -1.00586,1.16407 -1.00586,1.16406 h -0.88086 -0.88086 l -1.10351,-2.29883 -1.10156,-2.29883 -0.8379,0.49024 -0.83593,0.49218 v 2.80078 2.79883 l 1.12109,2.03321 1.12305,2.03515 2.79687,3.39258 2.79883,3.39258 v 0.63281 0.63086 l -2.58203,-1.92969 -2.58203,-1.92969 h -1.33789 -1.33789 v 0.74415 0.74609 l 1.22461,1.17383 1.22461,1.17578 -1.58594,0.85156 -1.58594,0.84961 -0.68945,5.79688 -0.68946,5.79687 -1.00781,1.78711 -1.00586,1.78711 1.07617,-0.63281 1.07813,-0.63282 -0.0156,2.1504 -0.0137,2.15039 -0.58398,2.0664 -0.58203,2.06641 -2.78516,-1.36719 -2.78516,-1.36914 h -0.53906 -0.53906 v 1.91016 1.91015 l 3.67578,3.20703 3.67578,3.20703 -1.65234,0.004 -1.65039,0.004 -2.67383,-0.9668 -2.67383,-0.96484 -0.92187,0.875 -0.91992,0.875 2.55078,3.56445 2.55078,3.56641 v 1.64648 1.64648 h -0.82813 -0.82812 l -1.77539,-1.86328 -1.77344,-1.86132 H 433.75 432.43164 v 1.0625 1.0625 l 3.67578,3.9707 3.67578,3.9707 114.3711,0.0879 0.002,-0.002 114.37109,0.0879 -1.51367,-4.8457 -1.51367,-4.84375 -3.19531,-4.7461 -3.19531,-4.74609 -0.16797,-7.40234 -0.16602,-7.4043 -1.06445,-5.88867 -1.06446,-5.89063 0.60352,-3.59179 0.60547,-3.5918 -0.91016,-2.27149 -0.91015,-2.27343 1.125,-1.06641 1.12304,-1.06836 -2.66601,-2.34766 -2.66407,-2.34765 v -0.58789 -0.58594 l 1.5,-1.57422 1.5,-1.57617 0.88086,-2.91992 0.88086,-2.91992 -1.51367,-1.43946 -1.51367,-1.43945 1.58203,-1.66016 1.58399,-1.66211 v -1.5332 -1.53125 l 3.04296,-7.24023 3.04297,-7.24219 3.39844,-9.23242 3.39844,-9.23243 3.70312,-7.0625 3.70508,-7.0625 1.69531,-4.29296 1.69727,-4.29102 8.76172,-9.16406 8.76172,-9.16211 2.33789,-3.79102 2.33789,-3.78906 5.94336,-13.20312 5.94531,-13.20313 4.95312,-15.36523 4.95313,-15.36524 5.21289,-13.78125 5.21484,-13.7793 3.82618,-12.57031 3.82617,-12.57031 -0.002,-8.84766 v -8.8457 l -1.77149,-4.82422 -1.77148,-4.82422 -3.25391,-4.02148 -3.25586,-4.02149 -5.75391,-3.20312 -5.7539,-3.20508 -4.41016,-2.98242 -4.41015,-2.98242 -8.82227,-3.76367 -8.82031,-3.76368 -8.33008,-2.26562 -8.33008,-2.26563 -5.2207,-1.24804 -5.2207,-1.2461 -0.94141,-1.66992 -0.93945,-1.66992 -3.64063,-1.44922 -3.64062,-1.45117 -3.16797,0.56055 -3.16992,0.55859 -3.20118,-2.13281 -3.20117,-2.13477 -0.49023,-0.57422 -0.49024,-0.57226 -2.44922,-0.71289 -2.45117,-0.71289 -2.69531,-1.80469 -2.69531,-1.80274 v 0.88086 0.88086 l 2.20507,1.46094 2.20508,1.46289 -1.75,0.0488 -1.75195,0.0488 -4.4043,-4.30664 -4.40429,-4.30469 -0.97266,-1.72656 -0.97266,-1.72657 1.28321,0.46875 1.28125,0.4668 0.16797,-2.10547 0.16601,-2.10742 -0.76953,1.18359 -0.76953,1.1836 -1.57422,-0.57227 -1.57227,-0.57422 -3.86132,-6.20898 -3.86329,-6.20899 -2.45703,-4.65625 -2.45703,-4.65429 -1.61133,-4.53125 -1.61132,-4.5293 1.125,-1.28906 1.12695,-1.29102 h -0.72852 -0.73046 l 1.29101,-1.47851 1.29297,-1.48047 -1.41797,0.27734 -1.41601,0.27539 -2.70899,-0.67969 -2.70898,-0.67968 1.36523,-2.54102 1.36524,-2.53906 -0.79102,-1.99609 -0.79102,-1.99415 -2.25,-1.49609 -2.24804,-1.49609 h 0.92578 0.92773 l -2.07812,-1.38282 -2.07617,-1.38281 -1.01954,-4.4375 -1.01757,-4.4375 -0.56446,-6.05273 -0.5664,-6.05274 -1.44532,-4.53125 -1.44531,-4.53125 0.5625,-0.86328 0.56055,-0.86328 -0.98047,-1.12305 -0.98047,-1.12304 -0.084,-0.69922 -0.082,-0.69727 v -1.91211 -1.91015 l -2.83204,-0.9375 -2.83203,-0.9375 2.83203,-2.94727 2.83204,-2.94531 v -0.69531 -0.69532 l -3.56836,2.29883 -3.56641,2.30078 -2.55859,-0.0195 -2.5586,-0.0176 3.91992,-1.71093 3.91993,-1.71094 1.86718,-1.99414 1.86719,-1.99219 H 588 586.44727 l -1.30665,1.24024 -1.30664,1.24218 -1.45898,0.0859 -1.45898,0.0859 -2.63086,0.54101 -2.63282,0.54297 -0.70507,-1.08203 -0.70313,-1.08203 1.05274,0.61719 1.05078,0.61718 1.43359,-1.35937 1.43164,-1.36133 0.37891,0.1875 0.37695,0.18946 -0.70898,-0.84571 -0.71094,-0.84375 -1.51172,1.19141 -1.51172,1.1914 v -0.74218 -0.74219 l -2.27734,2.0332 -2.27735,2.03321 -0.63281,-0.60157 -0.63477,-0.60156 2.17383,-2.89844 2.17188,-2.89843 -0.375,-0.46485 -0.375,-0.4668 2.09375,-0.91796 2.09375,-0.91993 v -1.01953 -1.01758 l 2.52734,-1.28515 2.52539,-1.2832 0.93946,-1.66602 0.9375,-1.66797 h -1.35352 -1.35352 l -2.9414,1.39453 -2.93946,1.39258 -1.75781,3.70117 -1.75586,3.69922 -1.80078,1.54883 -1.80078,1.54883 0.52344,0.80664 0.52539,0.80664 -0.79297,0.0195 -0.79297,0.0195 -2.93945,4.16797 -2.94141,4.16602 -1.25976,0.002 -1.25977,0.002 1.01563,-1.80078 1.01367,-1.80078 v -1.04688 -1.04687 l -0.73438,0.43164 -0.73437,0.43164 v -2.5625 -2.56055 l 1.46875,-1.71875 1.4707,-1.71875 -1.12305,0.63868 -1.12304,0.63867 -2.72657,-1.34375 -2.72656,-1.34375 -0.80664,0.47265 -0.80469,0.47266 v -1.30664 -1.30664 l 1.9668,-1.69141 1.96484,-1.6914 -0.48632,-0.46289 -0.48828,-0.46289 1.09179,-1.25 1.0918,-1.24805 h -0.87695 -0.87696 l -3.55273,2.78125 -3.55274,2.7832 -0.54297,-1.3418 -0.54101,-1.34179 2.64648,-1.98633 2.64649,-1.98633 -3.85352,2.12305 -3.85351,2.12109 0.67968,-1.67969 0.67774,-1.68164 -1.72461,0.56836 -1.72656,0.56641 3.91992,-3.24219 3.91992,-3.24414 -1.10547,-0.0156 -1.10351,-0.0137 -1.22071,1.39649 -1.2207,1.39648 h -1.1543 -1.15429 l -1.16016,1.10352 -1.16016,1.10156 -2.11914,0.14844 -2.11914,0.14844 3.0918,-2.41407 3.09375,-2.41601 -0.008,-1.08594 -0.008,-1.08594 1.12696,-0.35742 1.12695,-0.35742 -0.45508,-1.29492 -0.45312,-1.29492 -5.73828,5.76367 -5.73633,5.76562 h -0.7832 -0.78321 l 2.1211,-3.41601 2.12109,-3.41602 -2.1543,0.53516 -2.15429,0.53515 v -0.77539 -0.77734 l 2.53125,-1.89063 2.53125,-1.89257 1.8789,-0.56641 1.88086,-0.56641 v -0.8457 -0.84375 l -2.48437,0.89648 -2.48243,0.89649 -1.68164,-0.85156 -1.68359,-0.85157 -1.46875,-0.52929 -1.4707,-0.52735 -1.71289,-1.16211 -1.71094,-1.16406 -1.85742,1.10352 -1.85742,1.10156 -0.61133,-0.57813 -0.60938,-0.58007 2.70899,-2.74414 2.70898,-2.74414 -4.25781,2.51367 -4.25781,2.51562 -0.55079,-0.52539 -0.55273,-0.52539 -1.31641,1.03711 -1.31445,1.03711 v 1.30469 1.30469 l 2.69531,-1.53321 2.69532,-1.5332 -3.64063,3.35547 -3.64062,3.35547 -1.55079,2.24804 -1.54882,2.24805 -2.02149,-0.50195 -2.02148,-0.50196 2.95312,-1.17968 2.95313,-1.17969 0.6875,-2.06055 0.6875,-2.05859 0.25976,-1.51563 0.25977,-1.51367 -0.9375,-1.12305 -0.9375,-1.12109 -1.87695,1.11328 -1.87696,1.11328 v 1.35938 1.35742 l -1.07031,-1.01758 -1.07031,-1.01562 1.20312,-2.19532 1.20313,-2.19531 2.05664,-1.86328 2.05664,-1.86133 -2.26953,-0.30859 -2.26953,-0.30664 -1.71289,1.4707 -1.71094,1.47266 h -1.14844 -1.14844 v -0.89258 -0.89063 l 3.58399,-2.60156 3.58203,-2.59961 3.52344,-3.10547 z m 4.67383,19.47656 0.89453,1.51758 0.89453,1.51757 h 2.03125 2.03125 l -1.17187,1.3418 -1.17188,1.3418 -1.15429,-0.25781 -1.15235,-0.25782 0.74024,0.39258 0.74219,0.39258 -0.71485,1.08398 -0.71289,1.08399 -0.21875,1.37304 -0.2168,1.375 0.93555,0.54883 0.93555,0.55078 -2.50196,2.23438 -2.5039,2.23437 -3.29102,0.10352 -3.29297,0.10351 0.50977,-1.26171 0.50977,-1.25977 1.75585,-0.89453 1.75586,-0.89258 -0.51171,-1.86328 -0.51368,-1.86523 -1.11328,0.63476 -1.11328,0.63281 1.30859,-1.5332 1.31055,-1.53516 -0.54883,-0.84179 -0.54687,-0.83985 3.04883,-2.58007 z m -41.64258,74.73437 6.23047,0.13281 6.23047,0.13086 -3.91992,0.57032 -3.91992,0.56836 1.79492,0.69531 1.79492,0.69531 2.61524,0.0742 2.61523,0.0723 -2.94141,0.98632 -2.93945,0.98438 -0.32422,0.25781 -0.32422,0.25977 1.09375,1.9414 1.09375,1.94141 h -0.6914 -0.69336 l -1.59571,-1.16406 -1.59375,-1.16211 2.35157,2.13086 2.35156,2.13086 3.33203,-1.86719 3.33008,-1.86719 v 0.73828 0.73633 l -2.26758,2.02539 -2.26758,2.02344 h -1.68359 -1.68164 l -0.56445,1.39844 -0.56446,1.39648 h -0.89648 -0.89649 l -1.11718,-2.32812 -1.11524,-2.32813 h -0.7832 -0.78321 l -1.22851,-3.89258 -1.22656,-3.89062 1.13281,-0.35938 1.13281,-0.35742 -0.54101,-1.33789 z m 63.14453,72.67188 1.84571,0.9375 1.8457,0.9375 -0.23437,1.0332 -0.23633,1.03125 4.3164,3.18359 4.31446,3.18555 -2.84375,-0.64453 -2.84571,-0.64258 -3.375,-1.30078 -3.375,-1.30078 -0.85156,1.44531 -0.84961,1.44336 -0.91992,-0.53906 -0.91992,-0.54102 v 3.25391 3.25195 l 0.95508,2.38867 0.95703,2.38868 h -0.41016 -0.41015 l -1.5254,-2.06836 -1.52734,-2.07032 -0.0469,1.3711 -0.0469,1.37109 -1.67187,-3.24804 -1.67188,-3.24805 -2.79297,-1.27149 -2.79492,-1.27343 5.24805,-2.83203 5.24804,-2.83008 2.31055,-1.70703 z m -297.4121,58.15429 0.68164,3.72461 0.68164,3.72461 1.52343,2.32813 1.52539,2.32812 -1.30273,-1.16406 -1.30469,-1.16406 -1.02734,0.0371 -1.0293,0.0391 -3.43164,5.07617 -3.42969,5.07617 -0.73437,0.008 -0.73633,0.008 v 1.11914 1.11914 l 3.11133,3.05078 3.11133,3.04883 1.28711,-1.01367 v -0.002 l 1.28515,-1.01367 -3.17187,-2.83398 -3.17188,-2.83399 1.29492,-0.41992 1.29493,-0.42187 2.19922,1.96289 2.19726,1.96093 h 1.16211 1.16211 v -1.23437 -1.23437 l -2.41992,-2.16016 -2.41992,-2.16016 0.5664,-0.87109 0.56836,-0.87305 2.66406,2.42578 2.66602,2.42578 1.01563,-2.11523 1.01367,-2.11719 -0.81446,-2.0957 -0.8164,-2.0957 h 1.4375 1.43945 v -2.13868 -2.13867 l -4.03906,-3.67969 z m -61.2793,0.46485 h 1.74023 1.73828 l 0.57032,2.1582 0.57031,2.15625 2.63672,1.33594 2.63672,1.33398 0.41211,-1.16406 0.41015,-1.16406 1.63477,0.0312 1.63281,0.0293 1.90234,1.36719 1.90235,1.36719 h 2.7539 2.75196 v 0.93164 0.93164 h -0.86524 -0.86523 l -0.52539,1.62891 -0.52539,1.6289 -1.02539,3.14258 -1.02539,3.14063 1.68164,-1.2793 1.67968,-1.2793 2.19336,-1.16406 2.19141,-1.16406 h 1.91602 1.91601 l 0.55078,-0.84766 0.55274,-0.84765 1.4375,0.19921 1.4375,0.20118 0.51758,0.64648 0.51953,0.64844 -0.57227,-0.38867 -0.57422,-0.38868 -1.79492,1.45899 -1.79297,1.45898 -3.55469,1.16211 -3.55468,1.16016 -3.63477,0.61133 -3.63281,0.61132 -1.54102,0.42774 v -0.002 l -1.54101,0.42578 -0.66407,-0.63086 -0.66406,-0.63086 v -0.83008 -0.83203 l 0.92969,0.54687 0.93164,0.54688 1.20703,-2.12109 1.20703,-2.1211 0.27149,-2.31836 0.26953,-2.31836 -1.01367,1.38672 -1.01172,1.38867 -0.50391,-1.18359 -0.50586,-1.18359 -2.80273,-1.37891 -2.80274,-1.37695 h -1.87695 -1.87695 l -2.49024,-1.86133 -2.49023,-1.86133 0.51172,-1.86328 z m 269.89648,14.84179 -0.66015,1.19336 -0.66016,1.19336 -0.62109,3.89063 -0.6211,3.89062 1.27539,1.23047 1.27344,1.23047 3.92383,5.12109 3.92187,5.1211 1.70899,3.49219 1.71094,3.49218 h 0.86718 0.86719 l 1.89258,-2.56054 1.89453,-2.56055 1.35938,-3.62109 1.35742,-3.61914 -9.74414,-8.74805 z m -17.26367,23.95704 -0.66797,0.63672 -0.66992,0.63476 -3.19922,7.86328 -3.19922,7.86524 -0.60742,3.52734 -0.60742,3.5293 2.48047,-2.57422 2.48047,-2.57422 1.99609,-6.13672 1.99414,-6.13867 v -3.31641 z m 207.77539,12.41601 h 0.50196 0.50195 l -3.38867,4.88867 -3.38868,4.88868 -4.93164,10.7871 -4.93164,10.78711 -1.39648,6.43946 -1.39649,6.43945 -0.68554,7.68164 -0.6875,7.68164 -0.63281,-0.0371 v 0.002 l -0.63282,-0.0391 -2.69531,-1.38867 -2.69531,-1.38867 v -1.00977 -1.00781 l 2.47851,-8.64648 2.48047,-8.64649 2.50781,-5.86523 2.50782,-5.86524 3.72656,-7.02929 3.72656,-7.03125 4.51563,-5.82032 z m -177.4043,68.60742 -0.72265,0.68555 -0.72266,0.6875 3.42383,2.7832 3.42383,2.78516 4.90039,2.21094 4.90039,2.21289 1.29687,0.0527 1.29688,0.0547 -0.32617,-1.63086 -0.32617,-1.62891 -4.74024,-3.01562 -4.74023,-3.01563 -3.83203,-1.08984 z"
       transform="scale(0.26458333)"
       id="path6058"
       inkscape:connector-curvature="0" />
    <rect
       style="fill:#000000;fill-rule:evenodd;stroke-width:0.26430288"
       id="rect6073"
       width="210.3564"
       height="78.15789"
       x="1.0935003e-08"
       y="0.44661653" />
    <rect
       style="fill:#000000;fill-rule:evenodd;stroke-width:0.26458332"
       id="rect6075"
       width="210.80301"
       height="64.935234"
       x="0"
       y="231.98222" />
  </g>
  <g
     inkscape:groupmode="layer"
     id="layer6"
     inkscape:label="Text">
    <text
       xml:space="preserve"
       style="display:inline;font-style:normal;font-variant:normal;font-weight:normal;font-stretch:condensed;font-size:50.79999924px;line-height:1.25;font-family:Impact;-inkscape-font-specification:'Impact, Condensed';font-variant-ligatures:normal;font-variant-caps:normal;font-variant-numeric:normal;font-feature-settings:normal;text-align:start;letter-spacing:0px;word-spacing:0px;writing-mode:lr-tb;text-anchor:start;fill:#ffffff;fill-opacity:1;stroke:none;stroke-width:0.26458332"
       x="-220.77487"
       y="42.455334"
       id="text6069"
       transform="rotate(-90)"><tspan
         sodipodi:role="line"
         id="tspan6067"
         x="-220.77487"
         y="42.455334"
         style="font-style:normal;font-variant:normal;font-weight:normal;font-stretch:condensed;font-size:50.79999924px;font-family:Impact;-inkscape-font-specification:'Impact, Condensed';font-variant-ligatures:normal;font-variant-caps:normal;font-variant-numeric:normal;font-feature-settings:normal;text-align:start;writing-mode:lr-tb;text-anchor:start;fill:#ffffff;stroke-width:0.26458332">FITBOX</tspan></text>
    <text
       xml:space="preserve"
       style="font-style:normal;font-variant:normal;font-weight:normal;font-stretch:condensed;font-size:50.79999924px;line-height:1.25;font-family:Impact;-inkscape-font-specification:'Impact, Condensed';font-variant-ligatures:normal;font-variant-caps:normal;font-variant-numeric:normal;font-feature-settings:normal;text-align:start;letter-spacing:0px;word-spacing:0px;writing-mode:lr-tb;text-anchor:start;fill:#ffffff;fill-opacity:1;stroke:none;stroke-width:0.26458332"
       x="6.0293002"
       y="62.168819"
       id="text6105"><tspan
         sodipodi:role="line"
         id="tspan6103"
         x="6.0293002"
         y="62.168819"
         style="font-style:normal;font-variant:normal;font-weight:normal;font-stretch:condensed;font-size:50.79999924px;font-family:Impact;-inkscape-font-specification:'Impact, Condensed';font-variant-ligatures:normal;font-variant-caps:normal;font-variant-numeric:normal;font-feature-settings:normal;text-align:start;writing-mode:lr-tb;text-anchor:start;fill:#ffffff;stroke-width:0.26458332">OPEN 24-7</tspan></text>
    <text
       xml:space="preserve"
       style="font-style:normal;font-variant:normal;font-weight:normal;font-stretch:condensed;font-size:25.39999962px;line-height:1.25;font-family:Impact;-inkscape-font-specification:'Impact, Condensed';font-variant-ligatures:normal;font-variant-caps:normal;font-variant-numeric:normal;font-feature-settings:normal;text-align:start;letter-spacing:0px;word-spacing:0px;writing-mode:lr-tb;text-anchor:start;fill:#ffffff;fill-opacity:1;stroke:none;stroke-width:0.26458332"
       x="3.2325716"
       y="273.77591"
       id="text6109"><tspan
         sodipodi:role="line"
         id="tspan6107"
         x="3.2325716"
         y="273.77591"
         style="font-style:normal;font-variant:normal;font-weight:normal;font-stretch:condensed;font-size:25.39999962px;font-family:Impact;-inkscape-font-specification:'Impact, Condensed';font-variant-ligatures:normal;font-variant-caps:normal;font-variant-numeric:normal;font-feature-settings:normal;text-align:start;writing-mode:lr-tb;text-anchor:start;fill:#ffffff;stroke-width:0.26458332">WWW.EXAMPLE.COM</tspan></text>
  </g>
</svg>
