<?xml version="1.0" encoding="UTF-8" standalone="no"?>
<!-- Created with Inkscape (http://www.inkscape.org/) -->

<svg
   xmlns:dc="http://purl.org/dc/elements/1.1/"
   xmlns:cc="http://creativecommons.org/ns#"
   xmlns:rdf="http://www.w3.org/1999/02/22-rdf-syntax-ns#"
   xmlns:svg="http://www.w3.org/2000/svg"
   xmlns="http://www.w3.org/2000/svg"
   xmlns:xlink="http://www.w3.org/1999/xlink"
   xmlns:sodipodi="http://sodipodi.sourceforge.net/DTD/sodipodi-0.dtd"
   xmlns:inkscape="http://www.inkscape.org/namespaces/inkscape"
   width="210mm"
   height="297mm"
   viewBox="0 0 210 297"
   version="1.1"
   id="svg4802"
   inkscape:version="0.92.2 5c3e80d, 2017-08-06"
   sodipodi:docname="fitbox-flyer-drawing.svg">
  <defs
     id="defs4796" />
  <sodipodi:namedview
     id="base"
     pagecolor="#ffffff"
     bordercolor="#666666"
     borderopacity="1.0"
     inkscape:pageopacity="0.0"
     inkscape:pageshadow="2"
     inkscape:zoom="0.59241723"
     inkscape:cx="396.85039"
     inkscape:cy="493.73986"
     inkscape:document-units="mm"
     inkscape:current-layer="layer4"
     showgrid="true"
     inkscape:window-width="1440"
     inkscape:window-height="878"
     inkscape:window-x="0"
     inkscape:window-y="0"
     inkscape:window-maximized="1" />
  <metadata
     id="metadata4799">
    <rdf:RDF>
      <cc:Work
         rdf:about="">
        <dc:format>image/svg+xml</dc:format>
        <dc:type
           rdf:resource="http://purl.org/dc/dcmitype/StillImage" />
        <dc:title />
      </cc:Work>
    </rdf:RDF>
  </metadata>
  <g
     inkscape:label="Photograph"
     inkscape:groupmode="layer"
     id="layer1"
     style="display:none"
     sodipodi:insensitive="true">
    <image
       sodipodi:absref="/Users/martindrlik/github.com/martindrlik/whatever/utb-2017/inkspace/fitbox-punch-grayscale.png"
       xlink:href="fitbox-punch-grayscale.png"
       y="64.488495"
       x="-55.436489"
       id="image5956"
       preserveAspectRatio="none"
       height="168.02301"
       width="265.53775" />
  </g>
  <g
     inkscape:groupmode="layer"
     id="layer5"
     inkscape:label="Background"
     style="display:none"
     sodipodi:insensitive="true">
    <rect
       style="fill:#ff5aad;fill-opacity:1;fill-rule:evenodd;stroke-width:0.31305921"
       id="rect6078"
       width="210.3564"
       height="184.45264"
       x="0.082550138"
       y="54.93383" />
  </g>
  <g
     inkscape:groupmode="layer"
     id="layer4"
     inkscape:label="Path"
     style="display:inline">
    <path
       style="display:inline;fill:#000000;stroke-width:0.95530683"
       d="M 0 243.73633 L 0 878.7832 L 145.26953 878.77734 C 145.3251 861.36668 145.90887 843.95708 146.78516 826.54883 L 8.6796875 826.54883 L 8.6796875 759.70508 L 39.054688 759.70508 L 39.054688 787.08008 L 67.835938 787.08008 L 67.835938 762.70508 L 96.710938 762.70508 L 96.710938 787.08008 L 149.20703 787.08008 C 150.07591 774.7371 151.01214 762.39363 151.96289 750.04883 L 8.6796875 750.04883 L 8.6796875 710.58008 L 154.91797 710.58008 C 155.69087 699.70668 156.3979 688.83197 157.00781 677.95508 L 39.054688 677.95508 L 39.054688 701.29883 L 8.6796875 701.29883 L 8.6796875 615.04883 L 39.054688 615.04883 L 39.054688 638.48633 L 158.67969 638.48633 C 158.84292 632.14218 158.95586 625.79713 158.99609 619.45117 L 159.92188 607.44141 L 160.0293 606.04883 L 8.6796875 606.04883 L 8.6796875 566.67383 C 8.6796875 554.23633 9.6484375 544.83008 11.585938 538.45508 C 13.523437 532.01758 17.460938 526.83008 23.398438 522.89258 C 29.273437 518.95508 38.773438 516.98633 51.898438 516.98633 C 60.773437 516.98633 66.960938 518.39258 70.460938 521.20508 C 73.960937 523.95508 76.648438 529.42383 78.523438 537.61133 C 80.585937 528.48633 84.023438 522.29883 88.835938 519.04883 C 93.585937 515.79883 100.89844 514.17383 110.77344 514.17383 L 124.83594 514.17383 C 135.08594 514.17383 142.67969 515.36133 147.61719 517.73633 C 152.55469 520.04883 155.92969 523.76758 157.74219 528.89258 C 159.55469 534.01758 160.46094 544.51758 160.46094 560.39258 L 160.46094 600.44922 L 160.84766 595.43164 L 161.85547 594.47461 L 162.86523 593.51562 L 162.47656 595.43359 L 162.08789 597.34961 L 165.19336 600.12891 L 168.30078 602.90625 L 171.39062 603.88281 L 174.48047 604.85938 L 180.70117 604.34766 L 186.92188 603.83594 L 186.20312 604.56836 L 185.48242 605.30078 L 187.18359 606.52734 L 188.88281 607.75391 L 190.54102 607.7832 L 192.19727 607.81445 L 192.89453 608.88672 L 193.5918 609.95898 L 191.86328 611.16016 L 190.13281 612.36133 L 193.42773 613.19336 L 196.72266 614.02539 L 202.11328 613.74414 L 207.50391 613.46289 L 205.05469 614.79492 L 202.60352 616.12891 L 204.56445 616.25977 L 206.52344 616.39062 L 208.97461 616.24609 L 211.42383 616.09961 L 212.89453 615.88867 L 214.36523 615.67578 L 215.47852 615.01367 L 216.59375 614.35156 L 217.69141 615.60938 L 218.78906 616.86719 L 214.58398 618.39258 L 210.37891 619.91797 L 206.49219 619.99805 L 202.60352 620.07812 L 205.11133 620.80078 L 207.61914 621.52539 L 209.70703 622.58594 L 211.79492 623.64844 L 212.46875 622.61523 L 213.14062 621.58008 L 215.32227 623.99219 L 217.50391 626.4043 L 218.13867 625.79883 L 218.77539 625.19531 L 218.77539 626.54883 L 218.77539 627.9043 L 223.67578 632.48828 L 228.57617 637.07422 L 228.57617 638.17383 L 228.57617 639.27148 L 231.11523 639.87695 L 233.6543 640.48242 L 233.10742 641.83984 L 232.55859 643.19727 L 234.92383 643.19727 L 237.28906 643.19727 L 242.35742 648.08594 L 247.42578 652.97461 L 256.56836 662.28711 L 265.70898 671.59766 L 272.42383 679.51172 L 279.13867 687.42773 L 288.67188 695.01758 L 298.20703 702.60547 L 302.34961 704.43164 L 306.49219 706.25781 L 321.31055 711.04297 L 336.12891 715.82812 L 340.42188 715.82031 L 344.7168 715.8125 L 350.07617 713.44336 L 355.43359 711.07227 L 367.22656 702.90234 L 379.01953 694.73242 L 389.39062 688.07227 L 399.75977 681.41211 L 400.90625 679.02344 L 402.05078 676.63477 L 402.05078 674.82422 L 402.05078 673.01367 L 399.18945 666.7207 L 396.32617 660.42773 L 394.625 655.01758 L 392.92578 649.60547 L 389.7168 645.61328 L 386.50781 641.62109 L 384.11133 637.52344 L 381.71484 633.42383 L 378.50586 631.32812 L 375.29883 629.23242 L 372.25781 629.26758 L 369.21875 629.30078 L 367.10742 630.43164 L 364.99805 631.5625 L 354.51953 642.03906 L 344.04102 652.51367 L 341.92969 652.50977 L 339.81641 652.50586 L 336.87109 650.80078 L 333.92578 649.09375 L 325.59961 646.48047 L 317.27344 643.86914 L 307.47266 639.24219 L 297.67188 634.61523 L 292.06445 631.00586 L 286.45898 627.39453 L 275.62109 619.45898 L 264.78516 611.52344 L 264.27734 613.16211 L 263.76758 614.80273 L 261.34961 619.49805 L 258.93164 624.19336 L 252.69336 630.06641 L 246.45703 635.93945 L 244.62109 635.00586 L 242.78711 634.07031 L 236.7793 628.62695 L 230.77148 623.18164 L 228.0957 619.69922 L 225.41797 616.2168 L 224.30273 616.74414 L 223.18555 617.27148 L 225.63672 615.2793 L 228.08594 613.28906 L 233.33398 608.45898 L 238.58203 603.62891 L 240.43945 600.17383 L 242.29688 596.71875 L 242.29688 593.29883 L 242.29688 589.88086 L 238.84766 586.78906 L 235.39648 583.69727 L 232.58398 577.74023 L 229.76953 571.78125 L 224.76367 567.68555 L 219.75586 563.58789 L 219.75586 562.16797 L 219.75586 560.75 L 212.33398 554.74609 L 204.91406 548.74414 L 201.61328 546.51367 L 198.31445 544.2832 L 193.85938 543.80664 L 189.40625 543.33008 L 183.38086 545.4707 L 177.35742 547.61133 L 172.02344 552.55859 L 166.68945 557.50586 L 167.28125 559.2793 L 167.87305 561.05273 L 165.78516 564.41602 L 163.69727 567.7793 L 163.54883 567.7793 L 163.40039 567.7793 L 163.6543 559.63086 L 163.9082 551.48242 C 167.92172 459.69966 183.8785 351.11575 185.45312 243.73633 L 0 243.73633 z M 160.46094 307.92383 L 160.46094 344.48633 C 145.33594 348.86133 126.92969 352.86133 105.24219 356.48633 C 114.80469 357.48633 124.96094 358.86133 135.71094 360.61133 L 160.46094 364.36133 L 160.46094 402.79883 L 75.804688 388.54883 L 8.6796875 402.79883 L 8.6796875 364.64258 C 12.867187 363.95508 19.835938 362.58008 29.585938 360.51758 C 37.023437 358.89258 43.835938 357.54883 50.023438 356.48633 L 8.6796875 348.04883 L 8.6796875 314.95508 L 75.804688 328.73633 L 160.46094 307.92383 z M 576.01367 353.41406 L 572.58398 354.75 L 569.1543 356.08594 L 574.39844 356.1543 L 579.64258 356.22266 L 580.76953 357.37109 L 581.89453 358.52148 L 579.68945 358.01562 L 577.48438 357.51172 L 577.48438 358.38477 L 577.48438 359.25781 L 578.95508 359.79297 L 580.42578 360.33008 L 580.42578 361.2168 L 580.42578 362.10352 L 579.19922 361.42969 L 577.97461 360.75781 L 580.7207 363.23633 L 583.4668 365.7168 L 583.96289 365.7168 L 584.46094 365.7168 L 583.91797 364.88281 L 583.37695 364.05078 L 584.83008 363.52148 L 586.28125 362.99023 L 586.13477 363.65625 L 585.98828 364.32031 L 587.03906 366.64844 L 588.08789 368.97656 L 593.27148 373.63281 L 598.45312 378.28711 L 597.08789 376.42578 L 595.72266 374.5625 L 592.33594 371.12305 L 588.95117 367.68164 L 591.05859 368.20508 L 593.16602 368.72852 L 593.16602 369.50195 L 593.16602 370.27734 L 595.75195 372.88672 L 598.33789 375.49414 L 600.77734 380.61523 L 603.2168 385.73633 L 603.94727 388.06445 L 604.67969 390.39258 L 605.92188 387.59961 L 607.16211 384.80664 L 607.90625 387.13477 L 608.65234 389.46094 L 608.75 388.14258 L 608.84766 386.82422 L 609.41016 387.35742 L 609.9707 387.89258 L 610.70898 393.05469 L 611.44727 398.2168 L 610.63672 397.74219 L 609.82812 397.26758 L 609.82812 399.33984 L 609.82812 401.41211 L 609.27539 400.88672 L 608.72266 400.36328 L 608.34375 395.93555 L 607.96289 391.50977 L 607.08594 390.67578 L 606.20703 389.83984 L 606.10156 392.91016 L 605.99414 395.98047 L 606.97656 399.5 L 607.95898 403.01953 L 608.75781 402.55078 L 609.55664 402.08203 L 609.44727 406.86719 L 609.33789 411.6543 L 610.5625 412.04102 L 611.78711 412.42969 L 611.78711 414.21484 L 611.78711 416 L 612.14258 416 L 612.49609 416 L 612.41992 410.98438 L 612.34375 405.9668 L 613.49219 404.65234 L 614.64258 403.33594 L 615.30078 399.42578 L 615.95898 395.51367 L 614.97656 395.51367 L 613.99414 395.51367 L 613.56445 387.73242 L 613.13281 379.94922 L 610.46289 374.76367 L 607.79297 369.57617 L 601.86523 364.36328 L 595.9375 359.15039 L 591.18555 356.86133 L 586.43359 354.57422 L 581.22461 353.99414 L 576.01367 353.41406 z M 517.21484 366.48438 L 512.31445 368.91406 L 507.41406 371.34375 L 501.5332 375.45312 L 495.65234 379.5625 L 494.09961 381.01758 L 492.54688 382.47266 L 490.76172 382.47266 L 488.97852 382.47266 L 490.46875 380.84375 L 491.96094 379.21289 L 491.92773 377.59961 L 491.89258 375.98438 L 490.6875 376.93555 L 489.48047 377.88672 L 487.25391 378.29492 L 485.02734 378.70117 L 482.25391 381.22656 L 479.47852 383.75195 L 479.47852 385.54688 L 479.47852 387.3418 L 482.08398 385.7207 L 484.68945 384.09766 L 482.73438 386.77734 L 480.78125 389.45703 L 479.97852 390.76367 L 479.17578 392.07227 L 480.24023 391.44727 L 481.30469 390.82227 L 481.96875 391.84375 L 482.63281 392.86719 L 480.27148 395.35156 L 477.91016 397.83594 L 476.50586 399.69922 L 475.10156 401.56055 L 477.125 399.92969 L 479.14844 398.29883 L 479.66406 398.78906 L 480.17969 399.2793 L 483.25977 396.28516 L 486.33984 393.29297 L 486.33984 394.83008 L 486.33984 396.36719 L 484.79883 397.56641 L 483.25977 398.76758 L 481.36914 400.39648 L 479.47852 402.02734 L 478.12891 402.02734 L 476.7793 402.02734 L 475.56836 403.41406 L 474.35742 404.79883 L 473.60742 404.35938 L 472.85742 403.91992 L 468.57227 407.42578 L 464.28711 410.93164 L 461.10156 411.20508 L 457.91797 411.47852 L 457.91797 410.57617 L 457.91797 409.67578 L 456.39648 409.12109 L 454.875 408.56641 L 455.55469 409.71875 L 456.23242 410.87305 L 454.5293 409.35156 L 452.82422 407.82812 L 452.76562 405.62695 L 452.70898 403.42383 L 453.28516 400.87891 L 453.86133 398.33203 L 454.57031 397.24219 L 455.2793 396.15234 L 453.98047 396.91406 L 452.68359 397.67578 L 453.30859 396.12695 L 453.93555 394.57812 L 453.51758 394.57812 L 453.09961 394.57812 L 450.64453 398.55664 L 448.18945 402.53711 L 448.48633 406.25586 L 448.7832 409.97266 L 449.95312 412.05273 L 451.125 414.13086 L 452.07031 414.13086 L 453.01562 414.13086 L 452.77148 415.25977 L 452.52734 416.38672 L 451.80664 417.35352 L 451.08594 418.32227 L 448.69141 421.16992 L 446.29883 424.01758 L 447.03516 425.14844 L 447.76953 426.28125 L 449.56445 424.39648 L 451.35938 422.51172 L 452.43359 422.52734 L 453.50586 422.54297 L 452.52734 423.22656 L 451.54688 423.91016 L 451.57227 425.30664 L 451.59961 426.70312 L 452.45898 428.01172 L 453.32031 429.32031 L 452.12695 428.61914 L 450.93164 427.91797 L 451.5957 431.2793 L 452.25977 434.64062 L 450.51758 434.00586 L 448.77539 433.37109 L 449.61914 434.66602 L 450.46094 435.96289 L 450.25 438.60742 L 450.03711 441.25195 L 450.76758 442.35938 L 451.49609 443.46484 L 451.57617 444.39648 L 451.6543 445.32617 L 452.90234 448.12109 L 454.14844 450.91406 L 453.17188 452.41211 L 452.19336 453.91016 L 455.88867 458.92969 L 459.58594 463.94922 L 461.19141 463.82227 L 462.79688 463.69531 L 462.3418 464.39648 L 461.88477 465.09766 L 463.80273 466.74609 L 465.7207 468.39648 L 466.30078 471.33789 L 466.88281 474.2793 L 465.70703 488.20312 L 464.53125 502.12695 L 464.07422 506.50586 L 463.61523 510.88477 L 466.20703 513.3457 L 468.79883 515.80859 L 472.91406 515.27148 L 477.0293 514.73438 L 481.77539 514.15039 L 486.52148 513.56641 L 487.52148 514.51562 L 488.52148 515.4668 L 487.83398 516.52344 L 487.14648 517.58203 L 485.76367 516.49219 L 484.38086 515.40039 L 484.38086 516.95703 L 484.38086 518.51172 L 487.44922 519.73828 L 490.51953 520.96484 L 494.03711 520.21094 L 497.55664 519.45703 L 497.95508 519.83594 L 498.35547 520.21484 L 495.93359 521.26367 L 493.51367 522.31055 L 493.72656 525.7207 L 493.93945 529.13086 L 495.89844 529.41406 L 497.85742 529.69531 L 499.75586 531.74023 L 501.6543 533.78711 L 503.31055 538.99414 L 504.9668 544.20312 L 508.33203 545.92578 L 511.69922 547.64844 L 509.44336 549.63672 L 507.18555 551.62305 L 506.13867 554.81055 L 505.08984 557.99609 L 504.59766 559.85938 L 504.10352 561.7207 L 504.28711 556.13477 L 504.47266 550.54688 L 503.47461 550.70898 L 502.47461 550.86914 L 499.71484 551.52734 L 496.95508 552.18555 L 497.26953 550.42188 L 497.58398 548.6582 L 495.63867 546.71875 L 493.69141 544.7793 L 491.79297 542.25 L 489.89258 539.7207 L 488.36133 538.06445 L 486.83008 536.40625 L 484.56055 535.26367 L 482.28906 534.12109 L 477.29883 533.37109 L 472.30859 532.62109 L 468.97656 533.49609 L 465.64453 534.36914 L 459.57617 534.54297 L 453.50781 534.7168 L 446.51562 539.14062 L 439.52344 543.5625 L 438.43555 543.5625 L 437.34961 543.5625 L 431.66406 548.91797 L 425.97656 554.27148 L 424.03125 557.99609 L 422.08594 561.7207 L 419.28516 566.21289 L 416.48242 570.70703 L 416.52539 577.35742 L 416.57031 584.00977 L 417.64258 584.34961 L 418.71484 584.68945 L 418.71484 585.54297 L 418.71484 586.39648 L 417.26953 586.39648 L 415.82227 586.39648 L 416.71094 588.61719 L 417.59961 590.83789 L 415.55273 592.92578 L 413.50391 595.01562 L 417.33398 594.41992 L 421.16602 593.82422 L 423.00195 593.78516 L 424.83789 593.74805 L 426.25781 592.40039 L 427.67578 591.05273 L 430.54492 591.05273 L 433.41602 591.05273 L 433.41602 591.87695 L 433.41602 592.70312 L 436.11133 593.21875 L 438.80664 593.73242 L 441.50195 594.36328 L 444.19727 594.99414 L 444.19727 592.15234 L 444.19727 589.31055 L 443.27344 587.00195 L 442.34961 584.69336 L 440.24414 584.05859 L 438.13672 583.42383 L 436.75781 580.2832 L 435.37695 577.14453 L 435.44531 574.55469 L 435.51367 571.96289 L 436.3125 573.82617 L 437.11133 575.6875 L 437.85547 572.89453 L 438.59961 570.10156 L 441.82617 564.04883 L 445.05469 557.99609 L 449.08203 553.80664 L 453.11133 549.61523 L 452.07812 551.6582 L 451.04688 553.70312 L 450.05078 554.28711 L 449.05273 554.87305 L 446.21875 560.20703 L 443.38477 565.54297 L 441.74609 570.89844 L 440.10742 576.25391 L 440.67578 577.6582 L 441.24219 579.06445 L 442.33984 578.42188 L 443.43555 577.77734 L 444.25391 579.03516 L 445.07422 580.29492 L 443.90039 581.00391 L 442.72656 581.71289 L 444.44141 581.72656 L 446.15625 581.74219 L 446.15625 583.19336 L 446.15625 584.64648 L 445.17773 584.07031 L 444.19727 583.49414 L 444.19727 583.87305 L 444.19727 584.25 L 446.15625 586.39844 L 448.11719 588.54492 L 448.11719 589.79883 L 448.11719 591.05469 L 446.94141 591.05469 L 445.76562 591.05469 L 446.90625 592.13867 L 448.04883 593.22266 L 454.69922 594.84961 L 461.34961 596.47656 L 458.37109 596.55859 L 455.39453 596.64062 L 455.26562 598.2793 L 455.13477 599.91602 L 454.81055 601.30469 L 454.48828 602.69336 L 459.87891 602.97852 L 465.26953 603.26562 L 466.19922 604.14258 L 467.13086 605.02148 L 465.08008 605.02148 L 463.0293 605.02148 L 462.37305 606.64258 L 461.71875 608.26367 L 463.93555 609.9707 L 466.1543 611.67578 L 469.31055 611.11328 L 472.4668 610.55078 L 473.0918 611.50977 L 473.71484 612.4707 L 472.1875 612.4707 L 470.66016 612.4707 L 470.66016 612.92578 L 470.66016 613.38086 L 472.34766 615.25391 L 474.03516 617.12695 L 474.85547 617.12695 L 475.67578 617.12695 L 474.97656 616.05078 L 474.27734 614.97656 L 475.4082 615.64062 L 476.53906 616.30469 L 476.53906 617.88867 L 476.53906 619.47266 L 478.5 620.63477 L 480.46094 621.79688 L 480.46094 623.53516 L 480.46094 625.27148 L 481.89258 629.12695 L 483.32227 632.98242 L 481.63477 632.125 L 479.94727 631.26562 L 478.0918 629.31836 L 476.23633 627.36914 L 475.50391 627.36914 L 474.77148 627.36914 L 473.69531 630.30078 L 472.61914 633.23438 L 472.61914 634.54688 L 472.61914 635.85938 L 473.59961 635.2832 L 474.58008 634.70898 L 474.58008 635.75 L 474.58008 636.79102 L 475.56055 636.21484 L 476.53906 635.63867 L 476.54102 636.39258 L 476.54102 637.14648 L 478.74609 639.47461 L 480.94922 641.80273 L 484.38086 643.56641 L 487.81055 645.33008 L 489.77148 646.88477 L 491.73047 648.44141 L 494.48633 650.06836 L 497.24023 651.69531 L 498.21875 651.38672 L 499.19531 651.07812 L 496.19922 647.14648 L 493.20117 643.21484 L 493.20117 640.91602 L 493.20117 638.61523 L 491.05664 636.7168 L 488.91016 634.81836 L 487.87109 634.78711 L 486.83008 634.75781 L 485.09766 632.49609 L 483.36719 630.23242 L 482.77148 627.4043 L 482.17578 624.57422 L 483.66211 624.57422 L 485.15039 624.57422 L 485.75781 626.07617 L 486.36523 627.58008 L 488.80273 627.13672 L 491.24023 626.69336 L 491.24023 627.49609 L 491.24023 628.29883 L 492.81641 628.29883 L 494.39062 628.29883 L 493.67969 629.92773 L 492.9668 631.55664 L 493.03516 632.48828 L 493.10352 633.41992 L 493.39648 635.28125 L 493.69141 637.14453 L 495.47266 638.4043 L 497.25391 639.66602 L 496.72852 640.96484 L 496.20312 642.26562 L 497.15234 642.26562 L 498.10156 642.26562 L 498.10156 643.55859 L 498.10156 644.85156 L 499.51367 644.72266 L 500.92773 644.59375 L 501.05469 645.52539 L 501.18164 646.45508 L 502.58203 647.20117 L 503.98242 647.94531 L 503.98242 649.15039 L 503.98242 650.35742 L 505.94141 652.04297 L 507.90234 653.72852 L 507.90234 654.94727 L 507.90234 656.16797 L 511.08789 659.63672 L 514.27344 663.10742 L 512.55859 662.49219 L 510.8418 661.87891 L 510.8418 662.33789 L 510.8418 662.79688 L 513.29297 663.68164 L 515.74219 664.56641 L 517.69336 667.61719 L 519.64648 670.66602 L 520.16992 670.36328 L 520.69336 670.06055 L 521.71875 670.38477 L 522.74414 670.71094 L 520.48633 673.4375 L 518.22852 676.16406 L 519.27734 675.54688 L 520.32812 674.93164 L 522.61719 678.85156 L 524.90625 682.77148 L 527.0918 685.56445 L 529.27734 688.35742 L 532.93359 694.41016 L 536.5918 700.46289 L 539.0918 703.02344 L 541.5918 705.58398 L 540.84766 705.58398 L 540.10352 705.58398 L 542.13477 708.03711 L 544.16602 710.49023 L 544.16602 711.25391 L 544.16602 712.01758 L 546.60547 714.33594 L 549.04688 716.6543 L 548.47266 718.33594 L 547.90039 720.01758 L 548.8457 718.76172 L 549.79102 717.50586 L 553.08984 722.95117 L 556.38672 728.39844 L 556.14258 729.13281 L 555.90039 729.86914 L 556.92773 731.69336 L 557.95508 733.51953 L 559.08203 733.51953 L 560.21094 733.51953 L 562.47852 735.54297 L 564.74609 737.56641 L 564.74609 738.30664 L 564.74609 739.04688 L 563.2832 738.51172 L 561.81836 737.97852 L 562.33008 737.19141 L 562.8418 736.4043 L 560.61328 735.27148 L 558.38477 734.13867 L 561.23828 737.78516 L 564.08984 741.43359 L 567.43359 745.40039 L 570.77734 749.36914 L 571.67188 748.84375 L 572.56445 748.32031 L 572.02539 749.6582 L 571.48438 750.99805 L 582.95312 762.29883 L 594.42188 773.60156 L 596.10742 773.09375 L 597.79297 772.58398 L 599.15625 774.1543 L 600.51953 775.72461 L 598.07031 774.50586 L 595.61914 773.28711 L 597.57617 775.37695 L 599.53125 777.46875 L 605.66211 782.19336 L 611.79102 786.91992 L 611.79102 787.9707 L 611.79102 789.02148 L 615.4668 791.04492 L 619.14258 793.06836 L 616.88477 793.0918 L 614.62695 793.11523 L 607.24609 798.46875 L 599.86328 803.82227 L 597 805.83008 L 594.13477 807.83594 L 599.28711 808.5332 L 604.43945 809.23047 L 613.26172 809.87891 L 622.08203 810.52539 L 615.2207 810.61523 L 608.36133 810.70508 L 600.51953 809.90234 L 592.67969 809.09961 L 590.35156 810.65039 L 588.02539 812.20312 L 583.98242 814.69141 L 579.9375 817.17773 L 577.11719 817.25195 L 574.29688 817.32422 L 568.05469 811.1875 L 561.81445 805.04883 L 560.33203 802.08203 L 558.84961 799.11523 L 551.95703 794.01953 L 545.06445 788.92383 L 537.25 779.42383 L 529.43555 769.92383 L 514.45703 755.50586 L 499.48047 741.08984 L 498.06836 738.46875 L 496.65625 735.84766 L 490.61328 730.125 L 484.57031 724.40234 L 479.43164 723.35547 L 474.29297 722.30859 L 473.80664 722.77148 L 473.32031 723.23242 L 474.39062 724.45898 L 475.46289 725.6875 L 472.07031 725.31055 L 468.67773 724.93359 L 469.30078 726.47852 L 469.92383 728.02148 L 475.4375 730.75195 L 480.94922 733.48242 L 477 732.94922 L 473.05078 732.41797 L 472.94336 736.46094 L 472.83398 740.50391 L 472.10938 743.63281 L 471.38477 746.76367 L 472.73633 747.57617 L 474.08984 748.39062 L 472.43164 748.40625 L 470.77539 748.41992 L 470.16992 747.49023 L 469.5625 746.55859 L 465.12891 746.55859 L 460.69531 746.55859 L 461.0957 747.72266 L 461.49609 748.88672 L 465.67773 751.67969 L 469.85742 754.47266 L 475.4043 759.23438 L 480.94922 763.99805 L 483.1543 765.08789 L 485.36133 766.17773 L 485.36133 767.07617 L 485.36133 767.97461 L 483.55078 767.97461 L 481.74023 767.97461 L 478.8457 766.60156 L 475.94922 765.23047 L 473.54883 762.78906 L 471.14844 760.34961 L 468.32422 758.95312 L 465.49805 757.55664 L 464.70508 758.77734 L 463.91016 759.99805 L 464.77734 760.99023 L 465.64648 761.98438 L 464.66602 766.125 L 463.6875 770.26562 L 463.98828 773.54297 L 464.28906 776.82031 L 461.10352 777.11328 L 457.91797 777.4043 L 457.91797 778.10938 L 457.91797 778.8125 L 460.85742 781.94141 L 463.79883 785.07031 L 463.79883 785.85938 L 463.79883 786.64648 L 460.76758 785.15625 L 457.73633 783.66797 L 457.17969 784.19531 L 456.62305 784.72461 L 458.40039 786.58984 L 460.17773 788.45703 L 470.56445 794.00586 L 480.94922 799.55469 L 483.89062 801.45117 L 486.83008 803.3457 L 486.00977 803.35352 L 485.1875 803.36133 L 477.58789 800.1875 L 469.98633 797.01172 L 466.39648 796.07031 L 462.80469 795.12695 L 461.3418 796.51758 L 459.87891 797.9082 L 459.87891 799.23828 L 459.87891 800.56836 L 459.2207 800.56836 L 458.5625 800.56836 L 456.85938 799.10352 L 455.1543 797.63867 L 454.52148 799.5332 L 453.88867 801.42969 L 454.91602 803.25195 L 455.94336 805.07422 L 461.0957 807.4082 L 466.24805 809.74414 L 461.34766 809.57812 L 456.44727 809.41406 L 456.10938 811.74219 L 455.76953 814.07031 L 454.76367 815.23438 L 453.75781 816.39844 L 452.87695 816.39844 L 451.99609 816.39844 L 450.89258 814.09961 L 449.79102 811.80078 L 448.95312 812.29102 L 448.11719 812.7832 L 448.11719 815.58398 L 448.11719 818.38281 L 449.23828 820.41602 L 450.36133 822.45117 L 453.1582 825.84375 L 455.95703 829.23633 L 455.95703 829.86914 L 455.95703 830.5 L 453.375 828.57031 L 450.79297 826.64062 L 449.45508 826.64062 L 448.11719 826.64062 L 448.11719 827.38477 L 448.11719 828.13086 L 449.3418 829.30469 L 450.56641 830.48047 L 448.98047 831.33203 L 447.39453 832.18164 L 446.70508 837.97852 L 446.01562 843.77539 L 445.00781 845.5625 L 444.00195 847.34961 L 445.07812 846.7168 L 446.15625 846.08398 L 446.14062 848.23438 L 446.12695 850.38477 L 445.54297 852.45117 L 444.96094 854.51758 L 442.17578 853.15039 L 439.39062 851.78125 L 438.85156 851.78125 L 438.3125 851.78125 L 438.3125 853.69141 L 438.3125 855.60156 L 441.98828 858.80859 L 445.66406 862.01562 L 444.01172 862.01953 L 442.36133 862.02344 L 439.6875 861.05664 L 437.01367 860.0918 L 436.0918 860.9668 L 435.17188 861.8418 L 437.72266 865.40625 L 440.27344 868.97266 L 440.27344 870.61914 L 440.27344 872.26562 L 439.44531 872.26562 L 438.61719 872.26562 L 436.8418 870.40234 L 435.06836 868.54102 L 433.75 868.54102 L 432.43164 868.54102 L 432.43164 869.60352 L 432.43164 870.66602 L 436.10742 874.63672 L 439.7832 878.60742 L 554.1543 878.69531 L 554.15625 878.69336 L 668.52734 878.78125 L 667.01367 873.93555 L 665.5 869.0918 L 662.30469 864.3457 L 659.10938 859.59961 L 658.94141 852.19727 L 658.77539 844.79297 L 657.71094 838.9043 L 656.64648 833.01367 L 657.25 829.42188 L 657.85547 825.83008 L 656.94531 823.55859 L 656.03516 821.28516 L 657.16016 820.21875 L 658.2832 819.15039 L 655.61719 816.80273 L 652.95312 814.45508 L 652.95312 813.86719 L 652.95312 813.28125 L 654.45312 811.70703 L 655.95312 810.13086 L 656.83398 807.21094 L 657.71484 804.29102 L 656.20117 802.85156 L 654.6875 801.41211 L 656.26953 799.75195 L 657.85352 798.08984 L 657.85352 796.55664 L 657.85352 795.02539 L 660.89648 787.78516 L 663.93945 780.54297 L 667.33789 771.31055 L 670.73633 762.07812 L 674.43945 755.01562 L 678.14453 747.95312 L 679.83984 743.66016 L 681.53711 739.36914 L 690.29883 730.20508 L 699.06055 721.04297 L 701.39844 717.25195 L 703.73633 713.46289 L 709.67969 700.25977 L 715.625 687.05664 L 720.57812 671.69141 L 725.53125 656.32617 L 730.74414 642.54492 L 735.95898 628.76562 L 739.78516 616.19531 L 743.61133 603.625 L 743.60938 594.77734 L 743.60938 585.93164 L 741.83789 581.10742 L 740.06641 576.2832 L 736.8125 572.26172 L 733.55664 568.24023 L 727.80273 565.03711 L 722.04883 561.83203 L 717.63867 558.84961 L 713.22852 555.86719 L 704.40625 552.10352 L 695.58594 548.33984 L 687.25586 546.07422 L 678.92578 543.80859 L 673.70508 542.56055 L 668.48438 541.31445 L 667.54297 539.64453 L 666.60352 537.97461 L 662.96289 536.52539 L 659.32227 535.07422 L 656.1543 535.63477 L 652.98438 536.19336 L 649.7832 534.06055 L 646.58203 531.92578 L 646.0918 531.35156 L 645.60156 530.7793 L 643.15234 530.06641 L 640.70117 529.35352 L 638.00586 527.54883 L 635.31055 525.74609 L 635.31055 526.62695 L 635.31055 527.50781 L 637.51562 528.96875 L 639.7207 530.43164 L 637.9707 530.48047 L 636.21875 530.5293 L 631.81445 526.22266 L 627.41016 521.91797 L 626.4375 520.19141 L 625.46484 518.46484 L 626.74805 518.93359 L 628.0293 519.40039 L 628.19727 517.29492 L 628.36328 515.1875 L 627.59375 516.37109 L 626.82422 517.55469 L 625.25 516.98242 L 623.67773 516.4082 L 619.81641 510.19922 L 615.95312 503.99023 L 613.49609 499.33398 L 611.03906 494.67969 L 609.42773 490.14844 L 607.81641 485.61914 L 608.94141 484.33008 L 610.06836 483.03906 L 609.33984 483.03906 L 608.60938 483.03906 L 609.90039 481.56055 L 611.19336 480.08008 L 609.77539 480.35742 L 608.35938 480.63281 L 605.65039 479.95312 L 602.94141 479.27344 L 604.30664 476.73242 L 605.67188 474.19336 L 604.88086 472.19727 L 604.08984 470.20312 L 601.83984 468.70703 L 599.5918 467.21094 L 600.51758 467.21094 L 601.44531 467.21094 L 599.36719 465.82812 L 597.29102 464.44531 L 596.27148 460.00781 L 595.25391 455.57031 L 594.68945 449.51758 L 594.12305 443.46484 L 592.67773 438.93359 L 591.23242 434.40234 L 591.79492 433.53906 L 592.35547 432.67578 L 591.375 431.55273 L 590.39453 430.42969 L 590.31055 429.73047 L 590.22852 429.0332 L 590.22852 427.12109 L 590.22852 425.21094 L 587.39648 424.27344 L 584.56445 423.33594 L 587.39648 420.38867 L 590.22852 417.44336 L 590.22852 416.74805 L 590.22852 416.05273 L 586.66016 418.35156 L 583.09375 420.65234 L 580.53516 420.63281 L 577.97656 420.61523 L 581.89648 418.9043 L 585.81641 417.19336 L 587.68359 415.19922 L 589.55078 413.20703 L 588 413.20703 L 586.44727 413.20703 L 585.14062 414.44727 L 583.83398 415.68945 L 582.375 415.77539 L 580.91602 415.86133 L 578.28516 416.40234 L 575.65234 416.94531 L 574.94727 415.86328 L 574.24414 414.78125 L 575.29688 415.39844 L 576.34766 416.01562 L 577.78125 414.65625 L 579.21289 413.29492 L 579.5918 413.48242 L 579.96875 413.67188 L 579.25977 412.82617 L 578.54883 411.98242 L 577.03711 413.17383 L 575.52539 414.36523 L 575.52539 413.62305 L 575.52539 412.88086 L 573.24805 414.91406 L 570.9707 416.94727 L 570.33789 416.3457 L 569.70312 415.74414 L 571.87695 412.8457 L 574.04883 409.94727 L 573.67383 409.48242 L 573.29883 409.01562 L 575.39258 408.09766 L 577.48633 407.17773 L 577.48633 406.1582 L 577.48633 405.14062 L 580.01367 403.85547 L 582.53906 402.57227 L 583.47852 400.90625 L 584.41602 399.23828 L 583.0625 399.23828 L 581.70898 399.23828 L 578.76758 400.63281 L 575.82812 402.02539 L 574.07031 405.72656 L 572.31445 409.42578 L 570.51367 410.97461 L 568.71289 412.52344 L 569.23633 413.33008 L 569.76172 414.13672 L 568.96875 414.15625 L 568.17578 414.17578 L 565.23633 418.34375 L 562.29492 422.50977 L 561.03516 422.51172 L 559.77539 422.51367 L 560.79102 420.71289 L 561.80469 418.91211 L 561.80469 417.86523 L 561.80469 416.81836 L 561.07031 417.25 L 560.33594 417.68164 L 560.33594 415.11914 L 560.33594 412.55859 L 561.80469 410.83984 L 563.27539 409.12109 L 562.15234 409.75977 L 561.0293 410.39844 L 558.30273 409.05469 L 555.57617 407.71094 L 554.76953 408.18359 L 553.96484 408.65625 L 553.96484 407.34961 L 553.96484 406.04297 L 555.93164 404.35156 L 557.89648 402.66016 L 557.41016 402.19727 L 556.92188 401.73438 L 558.01367 400.48438 L 559.10547 399.23633 L 558.22852 399.23633 L 557.35156 399.23633 L 553.79883 402.01758 L 550.24609 404.80078 L 549.70312 403.45898 L 549.16211 402.11719 L 551.80859 400.13086 L 554.45508 398.14453 L 550.60156 400.26758 L 546.74805 402.38867 L 547.42773 400.70898 L 548.10547 399.02734 L 546.38086 399.5957 L 544.6543 400.16211 L 548.57422 396.91992 L 552.49414 393.67578 L 551.38867 393.66016 L 550.28516 393.64648 L 549.06445 395.04297 L 547.84375 396.43945 L 546.68945 396.43945 L 545.53516 396.43945 L 544.375 397.54297 L 543.21484 398.64453 L 541.0957 398.79297 L 538.97656 398.94141 L 542.06836 396.52734 L 545.16211 394.11133 L 545.1543 393.02539 L 545.14648 391.93945 L 546.27344 391.58203 L 547.40039 391.22461 L 546.94531 389.92969 L 546.49219 388.63477 L 540.75391 394.39844 L 535.01758 400.16406 L 534.23438 400.16406 L 533.45117 400.16406 L 535.57227 396.74805 L 537.69336 393.33203 L 535.53906 393.86719 L 533.38477 394.40234 L 533.38477 393.62695 L 533.38477 392.84961 L 535.91602 390.95898 L 538.44727 389.06641 L 540.32617 388.5 L 542.20703 387.93359 L 542.20703 387.08789 L 542.20703 386.24414 L 539.72266 387.14062 L 537.24023 388.03711 L 535.55859 387.18555 L 533.875 386.33398 L 532.40625 385.80469 L 530.93555 385.27734 L 529.22266 384.11523 L 527.51172 382.95117 L 525.6543 384.05469 L 523.79688 385.15625 L 523.18555 384.57812 L 522.57617 383.99805 L 525.28516 381.25391 L 527.99414 378.50977 L 523.73633 381.02344 L 519.47852 383.53906 L 518.92773 383.01367 L 518.375 382.48828 L 517.05859 383.52539 L 515.74414 384.5625 L 515.74414 385.86719 L 515.74414 387.17188 L 518.43945 385.63867 L 521.13477 384.10547 L 517.49414 387.46094 L 513.85352 390.81641 L 512.30273 393.06445 L 510.75391 395.3125 L 508.73242 394.81055 L 506.71094 394.30859 L 509.66406 393.12891 L 512.61719 391.94922 L 513.30469 389.88867 L 513.99219 387.83008 L 514.25195 386.31445 L 514.51172 384.80078 L 513.57422 383.67773 L 512.63672 382.55664 L 510.75977 383.66992 L 508.88281 384.7832 L 508.88281 386.14258 L 508.88281 387.5 L 507.8125 386.48242 L 506.74219 385.4668 L 507.94531 383.27148 L 509.14844 381.07617 L 511.20508 379.21289 L 513.26172 377.35156 L 510.99219 377.04297 L 508.72266 376.73633 L 507.00977 378.20703 L 505.29883 379.67969 L 504.15039 379.67969 L 503.00195 379.67969 L 503.00195 378.78711 L 503.00195 377.89648 L 506.58594 375.29492 L 510.16797 372.69531 L 513.69141 369.58984 L 517.21484 366.48438 z M 521.88867 385.96094 L 522.7832 387.47852 L 523.67773 388.99609 L 525.70898 388.99609 L 527.74023 388.99609 L 526.56836 390.33789 L 525.39648 391.67969 L 524.24219 391.42188 L 523.08984 391.16406 L 523.83008 391.55664 L 524.57227 391.94922 L 523.85742 393.0332 L 523.14453 394.11719 L 522.92578 395.49023 L 522.70898 396.86523 L 523.64453 397.41406 L 524.58008 397.96484 L 522.07812 400.19922 L 519.57422 402.43359 L 516.2832 402.53711 L 512.99023 402.64062 L 513.5 401.37891 L 514.00977 400.11914 L 515.76562 399.22461 L 517.52148 398.33203 L 517.00977 396.46875 L 516.49609 394.60352 L 515.38281 395.23828 L 514.26953 395.87109 L 515.57812 394.33789 L 516.88867 392.80273 L 516.33984 391.96094 L 515.79297 391.12109 L 518.8418 388.54102 L 521.88867 385.96094 z M 71.585938 409.73633 L 97.554688 409.73633 C 112.80469 409.73633 123.61719 410.11133 129.99219 410.86133 C 136.30469 411.54883 142.08594 413.79883 147.33594 417.61133 C 152.58594 421.36133 156.61719 426.45508 159.42969 432.89258 C 162.24219 439.33008 163.64844 446.83008 163.64844 455.39258 C 163.64844 463.51758 162.33594 470.83008 159.71094 477.33008 C 157.02344 483.76758 153.02344 488.95508 147.71094 492.89258 C 142.39844 496.83008 136.61719 499.17383 130.36719 499.92383 C 124.11719 500.67383 113.17969 501.04883 97.554688 501.04883 L 71.585938 501.04883 C 56.335938 501.04883 45.554687 500.70508 39.242188 500.01758 C 32.867188 499.26758 27.054687 497.01758 21.804688 493.26758 C 16.554688 489.45508 12.523437 484.33008 9.7109375 477.89258 C 6.8984375 471.45508 5.4921875 463.95508 5.4921875 455.39258 C 5.4921875 447.26758 6.8359375 439.98633 9.5234375 433.54883 C 12.148437 427.04883 16.117188 421.83008 21.429688 417.89258 C 26.742187 413.95508 32.523438 411.61133 38.773438 410.86133 C 45.023437 410.11133 55.960938 409.73633 71.585938 409.73633 z M 47.679688 449.20508 C 40.617188 449.20508 36.117187 449.61133 34.179688 450.42383 C 32.179688 451.17383 31.179687 452.76758 31.179688 455.20508 C 31.179688 457.26758 31.992188 458.86133 33.617188 459.98633 C 35.179687 461.04883 39.867188 461.58008 47.679688 461.58008 L 118.55469 461.58008 C 127.36719 461.58008 132.80469 461.23633 134.86719 460.54883 C 136.92969 459.79883 137.96094 458.11133 137.96094 455.48633 C 137.96094 452.79883 136.77344 451.08008 134.39844 450.33008 C 132.02344 449.58008 126.36719 449.20508 117.42969 449.20508 L 47.679688 449.20508 z M 480.24609 460.69531 L 486.47656 460.82812 L 492.70703 460.95898 L 488.78711 461.5293 L 484.86719 462.09766 L 486.66211 462.79297 L 488.45703 463.48828 L 491.07227 463.5625 L 493.6875 463.63477 L 490.74609 464.62109 L 487.80664 465.60547 L 487.48242 465.86328 L 487.1582 466.12305 L 488.25195 468.06445 L 489.3457 470.00586 L 488.6543 470.00586 L 487.96094 470.00586 L 486.36523 468.8418 L 484.77148 467.67969 L 487.12305 469.81055 L 489.47461 471.94141 L 492.80664 470.07422 L 496.13672 468.20703 L 496.13672 468.94531 L 496.13672 469.68164 L 493.86914 471.70703 L 491.60156 473.73047 L 489.91797 473.73047 L 488.23633 473.73047 L 487.67188 475.12891 L 487.10742 476.52539 L 486.21094 476.52539 L 485.31445 476.52539 L 484.19727 474.19727 L 483.08203 471.86914 L 482.29883 471.86914 L 481.51562 471.86914 L 480.28711 467.97656 L 479.06055 464.08594 L 480.19336 463.72656 L 481.32617 463.36914 L 480.78516 462.03125 L 480.24609 460.69531 z M 543.39062 533.36719 L 545.23633 534.30469 L 547.08203 535.24219 L 546.84766 536.27539 L 546.61133 537.30664 L 550.92773 540.49023 L 555.24219 543.67578 L 552.39844 543.03125 L 549.55273 542.38867 L 546.17773 541.08789 L 542.80273 539.78711 L 541.95117 541.23242 L 541.10156 542.67578 L 540.18164 542.13672 L 539.26172 541.5957 L 539.26172 544.84961 L 539.26172 548.10156 L 540.2168 550.49023 L 541.17383 552.87891 L 540.76367 552.87891 L 540.35352 552.87891 L 538.82812 550.81055 L 537.30078 548.74023 L 537.25391 550.11133 L 537.20703 551.48242 L 535.53516 548.23438 L 533.86328 544.98633 L 531.07031 543.71484 L 528.27539 542.44141 L 533.52344 539.60938 L 538.77148 536.7793 L 541.08203 535.07227 L 543.39062 533.36719 z M 49.085938 553.64258 C 44.335938 553.64258 41.023437 554.08008 39.148438 554.95508 C 37.210938 555.83008 35.992187 556.98633 35.492188 558.42383 C 34.992188 559.79883 34.710937 562.51758 34.648438 566.58008 L 68.398438 566.58008 C 68.335938 564.89258 68.304688 563.58008 68.304688 562.64258 C 68.304688 558.76758 67.367187 556.29883 65.492188 555.23633 C 63.554688 554.17383 58.085937 553.64258 49.085938 553.64258 z M 106.17969 553.64258 C 99.679688 553.64258 95.742187 554.33008 94.367188 555.70508 C 92.992188 557.08008 92.210937 560.70508 92.023438 566.58008 L 134.49219 566.58008 C 134.30469 561.01758 133.42969 557.48633 131.86719 555.98633 C 130.30469 554.42383 126.46094 553.64258 120.33594 553.64258 L 106.17969 553.64258 z M 245.97852 591.52148 L 246.66016 595.24609 L 247.3418 598.9707 L 248.86523 601.29883 L 250.39062 603.62695 L 249.08789 602.46289 L 247.7832 601.29883 L 246.75586 601.33594 L 245.72656 601.375 L 242.29492 606.45117 L 238.86523 611.52734 L 238.13086 611.53516 L 237.39453 611.54297 L 237.39453 612.66211 L 237.39453 613.78125 L 240.50586 616.83203 L 243.61719 619.88086 L 244.9043 618.86719 L 244.9043 618.86523 L 246.18945 617.85156 L 243.01758 615.01758 L 239.8457 612.18359 L 241.14062 611.76367 L 242.43555 611.3418 L 244.63477 613.30469 L 246.83203 615.26562 L 247.99414 615.26562 L 249.15625 615.26562 L 249.15625 614.03125 L 249.15625 612.79688 L 246.73633 610.63672 L 244.31641 608.47656 L 244.88281 607.60547 L 245.45117 606.73242 L 248.11523 609.1582 L 250.78125 611.58398 L 251.79688 609.46875 L 252.81055 607.35156 L 251.99609 605.25586 L 251.17969 603.16016 L 252.61719 603.16016 L 254.05664 603.16016 L 254.05664 601.02148 L 254.05664 598.88281 L 250.01758 595.20312 L 245.97852 591.52148 z M 184.69922 591.98633 L 186.43945 591.98633 L 188.17773 591.98633 L 188.74805 594.14453 L 189.31836 596.30078 L 191.95508 597.63672 L 194.5918 598.9707 L 195.00391 597.80664 L 195.41406 596.64258 L 197.04883 596.67383 L 198.68164 596.70312 L 200.58398 598.07031 L 202.48633 599.4375 L 205.24023 599.4375 L 207.99219 599.4375 L 207.99219 600.36914 L 207.99219 601.30078 L 207.12695 601.30078 L 206.26172 601.30078 L 205.73633 602.92969 L 205.21094 604.55859 L 204.18555 607.70117 L 203.16016 610.8418 L 204.8418 609.5625 L 206.52148 608.2832 L 208.71484 607.11914 L 210.90625 605.95508 L 212.82227 605.95508 L 214.73828 605.95508 L 215.28906 605.10742 L 215.8418 604.25977 L 217.2793 604.45898 L 218.7168 604.66016 L 219.23438 605.30664 L 219.75391 605.95508 L 219.18164 605.56641 L 218.60742 605.17773 L 216.8125 606.63672 L 215.01953 608.0957 L 211.46484 609.25781 L 207.91016 610.41797 L 204.27539 611.0293 L 200.64258 611.64062 L 199.10156 612.06836 L 199.10156 612.06641 L 197.56055 612.49219 L 196.89648 611.86133 L 196.23242 611.23047 L 196.23242 610.40039 L 196.23242 609.56836 L 197.16211 610.11523 L 198.09375 610.66211 L 199.30078 608.54102 L 200.50781 606.41992 L 200.7793 604.10156 L 201.04883 601.7832 L 200.03516 603.16992 L 199.02344 604.55859 L 198.51953 603.375 L 198.01367 602.19141 L 195.21094 600.8125 L 192.4082 599.43555 L 190.53125 599.43555 L 188.6543 599.43555 L 186.16406 597.57422 L 183.67383 595.71289 L 184.18555 593.84961 L 184.69922 591.98633 z M 454.5957 606.82812 L 453.93555 608.02148 L 453.27539 609.21484 L 452.6543 613.10547 L 452.0332 616.99609 L 453.30859 618.22656 L 454.58203 619.45703 L 458.50586 624.57812 L 462.42773 629.69922 L 464.13672 633.19141 L 465.84766 636.68359 L 466.71484 636.68359 L 467.58203 636.68359 L 469.47461 634.12305 L 471.36914 631.5625 L 472.72852 627.94141 L 474.08594 624.32227 L 464.3418 615.57422 L 454.5957 606.82812 z M 437.33203 630.78516 L 436.66406 631.42188 L 435.99414 632.05664 L 432.79492 639.91992 L 429.5957 647.78516 L 428.98828 651.3125 L 428.38086 654.8418 L 430.86133 652.26758 L 433.3418 649.69336 L 435.33789 643.55664 L 437.33203 637.41797 L 437.33203 634.10156 L 437.33203 630.78516 z M 645.10742 643.20117 L 645.60938 643.20117 L 646.11133 643.20117 L 642.72266 648.08984 L 639.33398 652.97852 L 634.40234 663.76562 L 629.4707 674.55273 L 628.07422 680.99219 L 626.67773 687.43164 L 625.99219 695.11328 L 625.30469 702.79492 L 624.67188 702.75781 L 624.67188 702.75977 L 624.03906 702.7207 L 621.34375 701.33203 L 618.64844 699.94336 L 618.64844 698.93359 L 618.64844 697.92578 L 621.12695 689.2793 L 623.60742 680.63281 L 626.11523 674.76758 L 628.62305 668.90234 L 632.34961 661.87305 L 636.07617 654.8418 L 640.5918 649.02148 L 645.10742 643.20117 z M 467.70312 711.80859 L 466.98047 712.49414 L 466.25781 713.18164 L 469.68164 715.96484 L 473.10547 718.75 L 478.00586 720.96094 L 482.90625 723.17383 L 484.20312 723.22656 L 485.5 723.28125 L 485.17383 721.65039 L 484.84766 720.02148 L 480.10742 717.00586 L 475.36719 713.99023 L 471.53516 712.90039 L 467.70312 711.80859 z "
       transform="scale(0.26458333)"
       id="path6058" />
    <rect
       style="fill:#000000;fill-rule:evenodd;stroke-width:0.26430288"
       id="rect6073"
       width="210.3564"
       height="78.15789"
       x="1.0935003e-08"
       y="0.44661653" />
    <rect
       style="fill:#000000;fill-rule:evenodd;stroke-width:0.26458332"
       id="rect6075"
       width="210.80301"
       height="64.935234"
       x="0"
       y="231.98222" />
  </g>
  <g
     inkscape:groupmode="layer"
     id="layer6"
     inkscape:label="Text">
    <text
       xml:space="preserve"
       style="font-style:normal;font-variant:normal;font-weight:normal;font-stretch:condensed;font-size:50.79999924px;line-height:1.25;font-family:Impact;-inkscape-font-specification:'Impact, Condensed';font-variant-ligatures:normal;font-variant-caps:normal;font-variant-numeric:normal;font-feature-settings:normal;text-align:start;letter-spacing:0px;word-spacing:0px;writing-mode:lr-tb;text-anchor:start;fill:#ffffff;fill-opacity:1;stroke:none;stroke-width:0.26458332"
       x="6.0293002"
       y="62.168819"
       id="text6105"><tspan
         sodipodi:role="line"
         id="tspan6103"
         x="6.0293002"
         y="62.168819"
         style="font-style:normal;font-variant:normal;font-weight:normal;font-stretch:condensed;font-size:50.79999924px;font-family:Impact;-inkscape-font-specification:'Impact, Condensed';font-variant-ligatures:normal;font-variant-caps:normal;font-variant-numeric:normal;font-feature-settings:normal;text-align:start;writing-mode:lr-tb;text-anchor:start;fill:#ffffff;stroke-width:0.26458332">OPEN 24-7</tspan></text>
    <text
       xml:space="preserve"
       style="font-style:normal;font-variant:normal;font-weight:normal;font-stretch:condensed;font-size:25.39999962px;line-height:1.25;font-family:Impact;-inkscape-font-specification:'Impact, Condensed';font-variant-ligatures:normal;font-variant-caps:normal;font-variant-numeric:normal;font-feature-settings:normal;text-align:start;letter-spacing:0px;word-spacing:0px;writing-mode:lr-tb;text-anchor:start;fill:#ffffff;fill-opacity:1;stroke:none;stroke-width:0.26458332"
       x="3.2325716"
       y="273.77591"
       id="text6109"><tspan
         sodipodi:role="line"
         id="tspan6107"
         x="3.2325716"
         y="273.77591"
         style="font-style:normal;font-variant:normal;font-weight:normal;font-stretch:condensed;font-size:25.39999962px;font-family:Impact;-inkscape-font-specification:'Impact, Condensed';font-variant-ligatures:normal;font-variant-caps:normal;font-variant-numeric:normal;font-feature-settings:normal;text-align:start;writing-mode:lr-tb;text-anchor:start;fill:#ffffff;stroke-width:0.26458332">WWW.EXAMPLE.COM</tspan></text>
  </g>
</svg>
